<svg xmlns="http://www.w3.org/2000/svg" enable-background="new 0 0 3000 3000" viewBox="0 0 3000 3000"><path fill="#f4f2ea" d="M2559.65 1862.12c-28.45-172.7-161.28-288.63-268.46-408.1-203.59-178.45 255.35-177.83 85.77-447.5-126.66-159.02-365.4-101.96-374.28-207.44 22.52-166.57-140.96-192.87-257.25-194.29-253.14-18.98-218.82-424.1-627.41-89.92-70.75 57.87-74.99 130.27-388.74 198.49-36.82 16.95-62.51 58.34-53.75 101.97 32.03 47.47 100.7 40.24 149.09 55.14 48.13 11.2 57.04 51.85 2.74 61.5-174.66 30.52-557.87 18.97-525.58 309.31 29.37 274.75 395.4 287.24 62.89 838.17 304.5 507.46 2221.39 213.96 2194.98-217.33z"/><path fill="#fea187" d="M2071.17 1173.91c-2.25-2.61-18.14 9.38-25.95 15.73 36.9-33.42 35.66-48.64-8.59-10.68 54.28-52.63-11.49-13.73-33.33 8.13-5.7 4.68-12.47 3.25-10.79-4.29 1.7-7.55-6.16-20.72-11.81-19.59-5.63 1.15 1.28 25.71-4.71 32.85-22.53 21.63-.51 46.34 11.87 55.55 23.59 11.43 119.82-82.42 62.03-49.42 10.85-8.73 26.13-22.62 21.28-28.28z"/><path fill="#f5efd2" d="M2127.53 2562.77C536.5 2790.01 272.82 2235.32 300.02 2099.33c304.68 9.12 694.31 48.23 885.04 25.66 367.25-43.51 985.79-191.64 1074.71-298.52 8.37-10.1 13.83-18.8 16.82-26.3 1.86-4.67 2.77-8.85 2.84-12.66 37.93 3.99 100.2 7.65 199.42 10.4 48.01 1.32 93.51-2.32 134.89 4.26 219.63 34.92 17.69 688.63-486.21 760.6z"/><path fill="#e5dcb5" d="M2279.42 1787.52c-48.11 389.77-1366.86 560.89-1952.35 346.93-103.1-37.68 101.66-201.93 365.02-307.99 87.98-29.3 103.88-51.19 135.37-51.19 153.77 37.08 306.05 116.92 457.37 173.4 69.85 40.27 310.45 5.5 596.08-90.99 195.9-66.86 256.59-104.64 398.51-70.16z"/><path fill="#a59063" d="M1317.91 1962.45c-152.97 14.77-375.34 24.78-466.33-27.81-119.11-68.83-42.5-136.36-11.37-158.27 25.26 3.94 63.08 19.07 141.86 50.12 166.02 65.39 291.93 117.61 335.84 135.96z"/><path fill="#5b4031" d="M500.94 1801.56c9.55-18.97 22.39-37.47 41.36-46.95 22.5-11.27 43.74-16.89 67.59-7.94-8.17 10.39 4.39 19.52 4.39 19.52-12.76 17.64-21.73 38.12-36.66 53.99-13.15 13.91-30.36 23.57-48.59 29.49-12.84 4.15-26.22 6.52-39.68 7.75-5.6.49-11.25.84-16.87 1 11.81-17.61 18.94-37.91 28.46-56.86z"/><path fill="#c4b283" d="M891.74 2313.55c32.34.12 64.68.46 97.01.72 2.86-5.87 5.47-12.41 8.37-19.31 13.58-32.54-19.55-57.1-19.55-57.1l.26-.8 71.78-226.67c2.21-6.88 3.66-14.04 4.36-21.46l12.91-140.96 5.25-57.13 8.08-88.31-137.51-113.72-29.4 29.36s7.84 49.37 17.01 113.27c.46 3.32.94 6.66 1.41 10.05 2.19 15.43 4.42 31.61 6.62 48.01 4.97 36.82 9.75 74.99 13.45 109.18 4.04 37.69 6.7 70.51 6.66 91.61-.06 21.86-5.09 49.03-12.57 77.49l-.02.02c-3.42 13.05-7.4 26.39-11.64 39.6-14.96 46.6-33.34 95.55-44.45 121.45-4.12 9.55-7.22 16.51-8.77 20.01l-1.17 2.54s-.92 2.61-1.79 7.04v.06c-2.27 11.81-4.04 36.15 13.7 55.05z"/><path fill="#684d3c" d="M988.75 2314.27c-32.34-.25-64.69-.59-97.03-.71-17.72-18.91-15.94-43.25-13.66-55.11v-.01l2.92-9.6 6.76-22.23s.69.84 2.01 2.24c8.07 8.51 39.97 36.48 88.09 8.22l-.27.83s33.14 24.55 19.55 57.07c-2.89 6.89-5.51 13.43-8.37 19.3z"/><path fill="#5b4031" d="M935.22 2313.82c-14.5-.12-29-.21-43.5-.26-17.72-18.91-15.94-43.25-13.66-55.11v-.01l2.92-9.6 6.76-22.23s.69.84 2.01 2.24c5.52 5.82 22.22 20.77 47.63 20.54-8.75 18.19-9.46 44.85-2.16 64.43z"/><path fill="#c4b283" d="m1669.86 1994.93-4.26 272.43s-.59.24-1.7.67c-8.84 3.26-50.78 17.79-81.18 10.05-27.71-7-39.48-32.02-33.4-99.43 1.41-15.6 3.79-33.5 7.11-53.93 13.38-81.96-26.1-203.65-46.39-258.68-6.68-18.06-11.25-28.94-11.25-28.94l171.07 157.83z"/><path fill="#684d3c" d="M1661.88 2298.7c-8.84 3.26-50.78 17.79-81.18 10.05-27.71-7-39.48-32.02-33.4-99.44 37.5 16.54 98.82 40.11 114.61 24.77.11-.1.19-.21.33-.31l-.29 48.22-.07 16.71z"/><path fill="none" d="M1993.67 1774.4c-.39.23-.77.45-1.18.68M1451.09 1815.74c-.67.42-1.37.83-2.08 1.25"/><path fill="#8c705b" d="M951.79 1898.68c4.04 37.69 6.7 70.51 6.66 91.61-.06 21.86-5.09 49.03-12.57 77.49 26.51-33.56 27.09-111.21 21.72-139.37-5.37-28.16 9.39-111.27 18.76-95.19 7.98 13.68 63.95 14.74 80.52 14.76l5.25-57.13c-36.64-42.25-105.5-92.53-109.85-93.72-3.36-.92-16.89 20.69-30.57 44.36 2.19 15.43 4.42 31.61 6.62 48.01 4.97 36.82 9.76 74.99 13.46 109.18z" opacity=".5"/><path fill="#d8c899" d="M580.04 1774.94c11.36-6.68 20.95-16.89 26.52-28.88.34-.8 2.76-.68 6.72-.74 22.34-.36 42.03-10.08 58.16-25.32 16.07-15.2 28.68-34.95 37.89-54.94 9.81-21.28 23.07-45.97 25.76-69.44 1.83-16.05-2.23-32.12-4.61-48.11-3.96-26.67-3.22-53.82-.85-80.68 3.4-38.81 10.54-78.37 30.69-111.72 20.67-34.25 52.09-48.91 85.93-60.49h.02c14.12-4.85 28.66-9.13 43.02-14.1 128.97-74.59 162.76-186.71 267.33-201.67 104.58-14.94 134.52 87.36 214.97 154.81 80.44 67.45 193.21 21.04 234.39 113.55 15.24 34.21 21.26 63.53 29.4 88.73 8.67 26.83 19.77 48.93 46.96 67.23 11.7 5.91 23.41 11.85 35.07 17.84 10.11 3.96 21.52 7.7 34.49 11.22 130.96 35.6 277.39-45.25 277.39-45.25 6.34-5.25 12.37-10.3 18.04-14.84 47.38-37.97 20.29-259.45 20.29-259.45-2.31-24.11-14.1-39.9-24.05-49.13 11.8-13.88 17.82-32.3 19.65-50.14 1.49-14.76-2.21-29.26-8.83-42.29 4.04-.22 7.52-.76 10.16-1.77 19.05-7.18 25.6-43.56 18.58-52.33-7.04-8.79.94-43.42 5.03-34.01 4.08 9.41 55.38 25.62 77.53 42.45 22.14 16.85 47.8 45.27 100.8 47.74 52.97 2.49 71.76-15.42 110.55-26.34 27.89-7.86 23.87 2.85 28.84 21.26.92 3.4 2.17 7.08 3.96 10.96 1.97 4.26 4.67 8.77 8.39 13.43 25.32 31.58 50.78 39.98 42.01 47.02-8.79 7.02-16.01 11.66-16.13 44.61-.1 32.94-44.42 22.93-70.85 10.1-26.41-12.83-50.98 6.86-50.98 6.86-35.21 46.66-102.63 68.01-102.63 68.01 28.56 228.36-67.47 368.35-166.82 454.91-71.41 62.22-132.63 69.08-218.28 70.05l-.02.02c-13.27 11.32-29.54 19.61-49.41 23.77-8.97 1.85-17.28 3.2-25.06 4.04-28.57 3.2-49.27-.14-64.28-7.25l32.4 91.81c3.88 11 5.45 22.67 4.6 34.31-4.11 56.17-17.66 223.38-17.66 223.38-1.34 16.65-.75 37.62-2.96 54.14-2.16 16.44-.27 26.67 4.03 33.38 11.56 18.09 40.51 11.3 54.88 32.18 16.23 23.64 10.93 35.8-3.78 51.05-29.39-.97-58.81-.64-88.21 0-3.88-.3-7.75.36-11.61 0-8.69-.8-17.37.86-26.06 0-4-9.81-5.99-16.77-5.85-27.99.04-3.55.08-7.96.12-12.99l.04-3.79c.04-6.52.11-13.94.11-22.1l.08-16.7c.08-14.62.08-30.87-.04-47.91-.43-80.71-2.73-179.01-11.05-206.17-8.14-26.48-74.63-79.54-133.03-122.05a56.277 56.277 0 0 1-9.83-9.16c-8.45-9.9-13.63-22.55-15.68-35.87-1.04.39-1.99.8-3.04 1.18a471.24 471.24 0 0 1-38.01 12.15c-44.67 12.35-100.51 21.08-168.87 21.08-152.92 0-234.53-39.46-271.92-65.82-2.17-1.49-4.22-3-6.07-4.4-4.16-3.17-7.24-8.97-12.44-13.69l-2.63 18.09-5.47 37.45-5.61 38.44-21.33 146.11c-1.08 7.36-3.02 14.43-5.81 21.04l-16.02 38.6-.04.03-74.01 184.4s36.15 27.32 19.54 58.64c-.78 1.47-1.53 2.91-2.28 4.34-26.77-.43-53.65.62-80.43.62h-37.58c-.95-.07-1.9-.16-2.85-.23-20.38-27-6.63-58.17-6.63-58.17s7.66-13.2 18.73-34.1c13.42-25.31 31.84-68.02 47.67-106.13 17.06-41.04 31.07-83.74 32.48-115.81 2.97-66.77-19.71-254.89-30.1-336.59-33.48 28.67-66.78 58.86-106.12 79.09-24.45 12.57-51.83 20.75-79.34 22.4-10.34.62-20.91-.06-30.93-2.49.96-.52 1.96-.91 2.87-1.47z"/><path fill="#c4b283" d="M743.53 2235.94c13.42-25.31 31.84-68.02 47.67-106.13 17.06-41.04 31.07-83.74 32.48-115.81.32-7.21.33-15.92.1-25.68 9.21 35.01 22.77 69.28 42.6 99.34 7.67 11.63 16.68 22.64 26.89 32.08l-58.24 145.1s36.15 27.32 19.54 58.64c-.78 1.47-1.53 2.91-2.28 4.34-26.77-.43-53.65.62-80.43.62h-37.58c-.95-.07-1.9-.16-2.85-.23-20.38-27-6.63-58.17-6.63-58.17s7.65-13.2 18.73-34.1z"/><path fill="#a59063" d="M1504.94 1412.05c11.98-70.53-157.34 53.63-146.73 76.75 10.6 23.12 136.39-15.86 146.73-76.75zM1180.9 1162.9c11.98-70.53-228.23 109.28-217.62 132.41 10.6 23.12 207.27-71.52 217.62-132.41zM1566.93 1341.41c-26.36-36.96-82.09 16.3-46.47 37.56 35.62 21.26 65.26-11.22 46.47-37.56zM1437.47 1644.29c172.84-118.04-398.5 61.39-337.84 89.1 60.67 27.69 266.37-40.29 337.84-89.1zM580.04 1774.94c10.73-6.31 19.77-15.84 25.44-26.97 12.6 3.46 26.3 4.05 38.87 3.53 38.12-1.59 71.91-23.44 95.61-52.49 12.89-15.8 25.99-34.22 32.92-53.53 5.62-15.66 7.78-32.2 11.55-48.35 2.3 6.19 2.97 13.31 3.8 19.39 1.58 11.54 5.75 64.17 5.34 60.9-33.48 28.67-66.78 58.86-106.12 79.09-24.45 12.57-51.83 20.75-79.34 22.4-10.34.62-20.91-.06-30.93-2.49.95-.53 1.95-.92 2.86-1.48z" opacity=".5"/><path fill="#684d3c" d="M852.28 2327.82c-26.77-.43-53.64.62-80.42.62h-37.58c-.95-.07-1.9-.16-2.85-.23-20.37-27-6.63-58.17-6.63-58.17s7.66-13.2 18.73-34.1c25.19 16.6 72.21 43.68 91.5 28.89 0 0 36.15 27.32 19.54 58.64-.79 1.47-1.54 2.92-2.29 4.35zM1679.08 2334.9c-3.88-.3-7.75.36-11.61 0-8.69-.81-17.38.86-26.06 0-4-9.81-5.99-16.77-5.85-28 .04-3.55.08-7.96.12-12.99 0 0 44.69 7.98 80.51-42.25 11.56 18.09 40.51 11.3 54.88 32.18 16.23 23.64 10.93 35.8-3.78 51.05-29.39-.96-58.81-.63-88.21.01z"/><path fill="#5b4031" d="M784.96 2328.36c-4.37.04-8.74.08-13.11.08h-37.64c-.93-.07-1.86-.16-2.79-.23-20.37-27-6.63-58.17-6.63-58.17s7.66-13.2 18.73-34.1c14.18 9.36 35.29 22.02 54.46 28.65-13.95 14.53-18.29 41.5-13.02 63.77zM1603.87 2231.05c-19.57-6.06-40.3-14.56-56.56-21.73-6.08 67.41 5.69 92.43 33.4 99.44 15.9 4.04 34.9 1.98 50.73-1.36-27.44-8.31-36.61-47.36-27.57-76.35zM1698.51 2334.9c-6.37.07-12.74-.14-19.11 0-3.98-.3-7.96.37-11.93 0-8.69-.81-17.38.86-26.06 0-4-9.81-5.99-16.77-5.85-28 .04-3.55.08-7.96.12-12.99 0 0 26.42 4.69 54.91-15.97-5.14 21.51-2.48 39.02 7.92 56.96zM2100 1075.44s24.45 18.05 4.51 20.97c-19.94 2.92-44.66 2.75-39.29 46.85 5.37 44.1 16.07 74.71 16.07 74.71s-14.02 30.45-30.15 6.49-7.9-36.7-7.9-36.7-13.59-12.16-16.01 2.07c-2.42 14.23-30.7 23.06-13.59-12.16s7.37-35.87 7.37-35.87-30.88 28.59-18.17-1.58c12.71-30.16 45.89-52.39 42.34-66.71-3.55-14.32-23.18-33.41-7.9-36.7 15.28-3.29 29.15 10.19 29.15 10.19s-11.55-34.54 1.28-38.67c12.83-4.13 18.18 20.77 18.18 20.77s20.82-49.84 40.79-33.51c19.97 16.33.51 34.23.51 34.23s47.82-39.09 54.21-15.78c6.39 23.31-12.43 31.47-12.43 31.47s35.12 10.27 8.16 18.81c-26.96 8.54-29.38 22.78-29.38 22.78s-21.52 1.9-47.75-11.66z"/><path fill="#d8c899" d="M2096.66 1098.66s-39.09-47.82-115.11-31.46c0 0 21.03 72.27 85.94 87.11 0-.01 57.21-8.2 29.17-55.65z"/><path fill="#a59063" d="M2077.04 1102.45s-24.8-30.34-73.03-19.96c0 0 13.35 45.85 54.52 55.27 0 0 36.3-5.2 18.51-35.31z" opacity=".5"/><path fill="#5b4031" d="M2200.79 1093.57c1.16-4.15 5.92-6.48 9.73-4.46 2.18 1.16 3.76 3.57 3.23 8.31-1.4 12.64-14.3 26.73-30.36 21.44-16.05-5.29-14.06-17.54-3.7-17.2 9.14.31 18.22 2.22 21.1-8.09zM2439.64 1156.14s.92 36.15-16.97 35.88c-17.89-.27-69.26-15.96-73.63-36.27 0 0 22.93 17.33 48.65 15.75 25.72-1.59 41.95-15.36 41.95-15.36zM2402.35 1076.23c2.72 2.11 5.37 2.88 7.5 3.03-1.8-3.87-3.04-7.55-3.96-10.95-3.26 1.56-7.77 4.59-3.54 7.92zM2389.73 1082.7s5.66-8.76-3.98-8.92c-9.63-.16-20.35 4.21-25.13 1.12-4.77-3.08 5.69 13.52 29.11 7.8z"/><path fill="#a59063" d="M962.29 1780.39c3.26 3.32 8.51 8.18 16.09 13.96 1.85 1.41 3.9 2.92 6.07 4.4 37.39 26.37 119 65.82 271.92 65.82 68.36 0 124.2-8.73 168.87-21.08 13.71-3.76 26.36-7.86 38.01-12.15-9.21-18.86 1.65-133.09 1.99-134.2-330.89 120.65-499.27 62.89-502.17 78.45-.32 1.72-.58 3.31-.78 4.8zM1834.56 1794.07c85.65-.97 146.87-7.82 218.28-70.05 99.35-86.56 195.38-226.55 166.82-454.91 0 0-17.36 8.21-40.99.28 6.9 4.22 13.68 10.44 13.68 18.48 0 16.43 27.11 169.74-48.29 257.2-75.42 87.48-67.65 156.87-163.54 181-95.89 24.14-145.96 68-145.96 68z" opacity=".5"/><path fill="#fea187" d="M1849.58 1314.05s-148.4-50.95-176.61-39.16c-28.21 11.8 71.28 118.54 71.28 118.54s79.15 9.86 105.33 5.29c26.18-4.57 0-84.67 0-84.67z"/><path fill="#fea187" d="m1836.27 1309.62 132.77-102.38 36.05 42.16s-111.45 166.48-184.85 147.98c-73.4-18.51 16.03-87.76 16.03-87.76z"/><path fill="#ef8e78" d="M1837.93 1315.28s.87 41.95 10.49 56.37c0 .01-31.46-26.65-10.49-56.37zM1971.22 1220.45s8.74 22.29 24.04 26.22c0 0-8.41 2.4-18.9-8.41-10.49-10.81-5.14-17.81-5.14-17.81z"/><path fill="#fea187" d="M1700.96 2231.82s14.12 64.85-2.23 82.79c0 0-5.72 3.57-4.07 11.11 1.63 7.55 67.52 8.38 89.92 4.92 22.38-3.45 45.76-2.77 45.76-2.77s5.48-11.53-6.02-11.96c-11.5-.43-44.54-4.48-68.98-14.37-24.42-9.89 1.98-97.74-2.41-102.13-9.51-9.48-51.97 32.41-51.97 32.41zM1531.46 2191.79s5.44 109.41-10.91 127.35c0 0-5.73 3.57-4.07 11.11 1.63 7.54 67.52 8.38 89.92 4.92 22.38-3.45 45.76-2.77 45.76-2.77s5.48-11.53-6.02-11.96c-11.5-.43-21.87-3.93-46.3-13.83-24.42-9.89-34.21-58.59-36.4-85.12-.76-9.15 7.09-25.31 2.69-29.7-9.51-9.48-34.67 0-34.67 0z"/><path fill="#5b4031" d="M1692.04 2323.56c23.92 9.4 77.92 8.39 77.92 8.39s-.73 8.25 2.38-6.02c3.1-14.25 10.97-18.44 10.97-18.44s36.58-3.05 22.03 4.84c-14.56 7.91-15.78 17.03-15.78 17.03s24.21-5 39.04-5.84c14.81-.89 25.31 1.39 21.49 11.02-3.86 9.63-24.79 2.25-58.41 5.37-33.59 3.13-112.28 1.09-112.28 1.09s-11.27-26.83 12.64-17.44zM1513.86 2328.09c23.91 9.4 77.91 8.39 77.91 8.39s-.73 8.25 2.38-6.02c3.11-14.25 9.84-23.55 9.84-23.55s37.72 2.06 23.17 9.95c-14.56 7.91-15.78 17.03-15.78 17.03s24.21-5 39.04-5.84c14.81-.89 25.31 1.39 21.49 11.02-3.87 9.63-24.79 2.26-58.41 5.38-33.59 3.13-112.28 1.09-112.28 1.09s-11.27-26.84 12.64-17.45z"/><path fill="#f2e9e7" d="M1721.94 1291.06s61.57 91.29 80.01 266.3c18.44 175.01 18.44 243.77 35.63 257.83 17.19 14.06-57.82 53.13-57.82 53.13l-57.82-577.26zM1670.37 1258.9s-68.76 246.9-117.2 276.59c-48.44 29.69-55.11 41.48-55.11 41.48s-7.39 258.55-12.08 338.24-54.69 210.96 34.38 210.96 150.01-195.33 150.01-201.58c0-6.26 48.44-154.71 0-665.69z"/><path fill="#fea187" d="M1624.45 1202.59s1.22 35.99-26.91 57.87c-28.13 21.88-90.63 18.29-81.26 91.96 9.38 73.67-14.06 400.26 35.94 420.58 50 20.31 192.2-7.81 192.2-7.81s13.45-403.16-22.49-432.85c-35.94-29.69-50.95-64.07-50.95-64.07l19.84-49.93-66.37-15.75z"/><path fill="#ef8e78" d="M1633.57 1273.44s13.7 17.77 25.87 17.65c0 0-8.9 25-28.6 16.41-19.7-8.59-53.07-9.79-53.07-9.79l50.51-12.86-14.58-16.41c-.01 0 9.74-5.38 19.87 5z"/><path fill="#231f20" d="M1669.05 1271.36s-63.79 90.39-150.4 222.52v25.59c-.01 0 155.46-202.01 150.4-248.11z" opacity=".1"/><path fill="#fff" d="M1670.99 1268.28s-117.73 187.35-152.34 225.6c-49.39 54.58 4.84 308.82 4.84 308.82s-63.56 422.69-7.3 447.69c56.26 25 191.69.78 241.7-33.6 50-34.38 21.88-225.91 40.63-436.42 18.75-210.51-43.75-460.28-76.57-489.31-32.83-29.03-50.96-22.78-50.96-22.78z"/><path fill="#231f20" d="M1670.49 1291.06s-13.78 213.95-128.63 249.11c0 .01 150.04-25.78 128.63-249.11z" opacity=".1"/><path fill="#231f20" d="M1662.96 1486.82s-75.01 198.68-129.7 92.42c0 0 22.9 143.76 73.96 46.1 51.06-97.67 55.74-138.52 55.74-138.52z" opacity=".1"/><path fill="#231f20" d="M1662.96 1569.53s-75.01 182.76-129.7 85.01c0 0 22.9 132.24 73.96 42.4 51.06-89.83 55.74-127.41 55.74-127.41z" opacity=".1"/><path fill="#231f20" d="M1646.76 1685.92s-56.26 137.1-97.29 63.77c0 0 17.18 99.2 55.48 31.81 38.29-67.39 41.81-95.58 41.81-95.58zM1631.12 2179.29s47.47 1.56 72.48-79.69c25-81.26 18.35-189.08 18.35-189.08s22.28 176.58 12.91 232.83c-9.38 56.25 25 57.82 25 57.82s-65.27 43.75-128.74-21.88zM1785.58 1875.36s-34.93-72.82-29.76-185.58c5.16-112.76 14.62-133.19 14.62-133.19s-103.29 165.51 15.14 318.77zM1541.86 1882.39s-44.69 246.11 25.71 283.62c0 0-100.97-7.18-25.71-283.62zM1585.15 1333.34s18.87 25.37 22.07 45.78c3.2 20.41 23.34 101.28 29.68 110.95 6.34 9.67 91.82 107.52 91.82 107.52l-130.6-117.78-12.97-146.47z" opacity=".1"/><path fill="#5b4031" d="M1659.61 1723.68c11.79-7.93 297.15-198.93 297.15-198.93l1.56 2.8s-283.35 214.92-291.88 211.63c-8.53-3.28-6.83-15.5-6.83-15.5z"/><path fill="#231f20" d="M1518.64 1424.15s15.19 111.52 30.82 132.43c69.01 92.3 182.3 112.1 182.3 112.1l-213.12-244.53z" opacity=".1"/><path fill="#fea187" d="M1805.47 1673.42c-2.95 7.15-.96 7.72-11.08 14.67 2.02 5.11-10.33 14.05-16.52 12.17-5.45 6.01-23.27 5.61-28.35-10.33-.71-2.19-17.08-19.31-17.74-21.28-17.17-10.88-138.15-88.33-160.41-120.1-23.9-34.18-111.73-220.41-44.46-254.81 14.38-7.33 46.21-13.67 59.89 23.95 12.47 34.35 41.73 165.33 46.76 188.03.49 2.19.77 3.39.77 3.39l29.31 29.59 61.15 61.75 28.17 28.44 7.49 7.55s21.49-15.2 27.18-11.32c5.63 3.88.22 16.19.22 16.19s36.02 21.4 17.62 32.11z"/><path fill="#ef8e78" d="M1585.15 1531.59c-13.35-1.86 45.96-22.01 45.96-22.01s-14.68 26.37-45.96 22.01z"/><path fill="#231f20" d="M1793.76 1666.5c-.83-7.93 10.04 4.88 9.81 6.57-.23 1.69-9.43-3-9.81-6.57zM1782.39 1679.05c0-8.68 12.58 7.7 8.64 8.26-3.95.56-8.64-6.2-8.64-8.26zM1769.42 1686.37c.98-6.42 10.7 10.31 6.95 10.12s-7.33-7.66-6.95-10.12z" opacity=".1"/><path fill="#5b4031" d="M1669.51 1079.95s-14.47 49.92 18.83 72.71c0 0 30.05-1.73 28.12-34.21-1.95-32.48-31.51-41.71-46.95-38.5z"/><path fill="#fea187" d="M1711.91 1119.05c10.31 25.64 22.88 91.78-6.76 110.34-29.64 18.56-57.98 9.58-75.45-14.49-17.47-24.06-20.31-31.53-20.31-31.53s-19.46-3.17-15-20.18c4.46-17.01 14.26-7.15 14.26-7.15s-.6-51.14 33.69-74.84c34.28-23.69 62.18 19.48 69.57 37.85z"/><path fill="#fff" d="M1684.98 1204.07s21.85-2.94 25.35-1.47-2 13.71-14.28 13.27-11.07-11.8-11.07-11.8z"/><path fill="#5b4031" d="M1698.37 1173.03c-3.52-.28-5.75-3.88-5.84-4.04-.43-.71-.21-1.64.51-2.08.71-.44 1.64-.21 2.08.5.43.7 1.93 2.48 3.59 2.6 1.22.05 2.51-.82 3.83-2.59a1.515 1.515 0 1 1 2.43 1.81c-1.97 2.63-4.12 3.91-6.41 3.8h-.19zM1637.75 1146.88s24.19-.4 26.7-2.7c2.51-2.3-4.88-7.56-15.62-5.23-10.74 2.34-13.84 7.76-11.08 7.93zM1659.34 1158.11c.39 3.89-1.96 7.3-5.24 7.63-3.28.33-6.27-2.54-6.66-6.42s1.96-7.31 5.24-7.65c.92-.09 1.81.06 2.64.45-1.13.47-1.87 1.8-1.72 3.29.18 1.75 1.54 3.07 3.03 2.92 1.09-.11 1.97-.99 2.27-2.14.22.61.37 1.24.44 1.92zM1696.73 1137.85s24.19-.4 26.7-2.7c2.51-2.3-4.88-7.56-15.61-5.23-10.75 2.33-13.85 7.76-11.09 7.93zM1718.32 1149.07c.39 3.89-1.96 7.3-5.24 7.63-3.28.33-6.27-2.54-6.66-6.42-.39-3.89 1.96-7.31 5.24-7.64.92-.09 1.81.06 2.64.45-1.13.46-1.87 1.8-1.72 3.29.18 1.75 1.54 3.07 3.03 2.92 1.09-.11 1.97-.99 2.27-2.14.22.6.37 1.24.44 1.91zM1696.21 1185.47c-6.46-.21-12.88-.11-19.07 1.65-6.31 1.81-12.16 4.65-18.46 6.28-5.68 1.5-11.85 2.29-17.36.08-5.03-2.05-13.97-5.58-17.5-9.59-4.59-5.26-18.53-2.83-8.39 10.14 3.03 4.89 7.56 11.61 14.27 20.88 17.5 24.07 45.81 33.06 75.46 14.48 11.45-7.15 16.57-21.46 18-37.72-8.31-3.97-17.51-5.81-26.95-6.2zm2.14 36.65c-18.18 4.29-24.5-15.28-24.5-15.28s5.03-10.11 21.53-10.99c16.56-.81 22.88 2.02 22.88 2.02s-1.72 19.96-19.91 24.25zM1642.34 1081.2s2.82 57.63-33.69 74.84c0 0-13.25-1.08-10.17-33.47 1.76-18.36 20.12-44.96 43.86-41.37zM1608.77 1162.23s-7.43-6.86-9.86-1.57c-2.43 5.29 6.3 14.74 6.3 14.74s-7.21-8.57-4.33-11.97c2.88-3.4 7.76-.02 7.89-1.2z"/><path fill="#8c7750" d="M1886.25 2305.76c0 13.27 28.67 24.03 64.03 24.03s64.03-10.76 64.03-24.03-28.67-24.03-64.03-24.03-64.03 10.76-64.03 24.03z"/><path fill="#c4b283" d="m1915.22 2209.7.58 3.66 14.05 89.13.77 4.62c.19.19.39.29.58.39 2.89 1.44 7.99 2.4 13.86 2.4 4.81 0 9.14-.67 12.22-1.73l.58-6.93 6.45-88.84c-.1.1-.29.19-.39.19-12.51 7.22-26.08 4.91-35.8 1.25l-.77-.29c-4.91-1.83-8.85-3.95-10.87-5.2-.59.39-.97.87-1.26 1.35z"/><path fill="#8c7750" d="m1915.22 2209.7.58 3.66 14.05 89.13.77 4.62c.19.19.39.29.58.39l-.19-5.68-2.79-83.54-.1-4.43-.77-.29-12.13-3.86z"/><path fill="#7f634f" d="M2347.83 1187.69c-44.51-23.09-24.52-86.52-26.78-127.01-10.66 26.41-9.76 57.21-6.93 85.32-69.57 48.79-156.45 118.95-247.41 90.66 87.11 45.08 185.03-23.87 249.64-79.64 3.52 14.87 12.07 30.51 27.46 35.71-24.26 283.98-51.14 960.48-381.44 1046.45 335.47-67.12 384.88-772.57 385.46-1051.49z"/><path fill="#7f634f" d="M1965.83 2233.85s-33.35 7.83-48.78 0c0 0-1.07 5.09.95 5.71 2.03.61 25.01 5.61 47.07-1.14 0-.01 3.65-1.89.76-4.57zM1964.26 2249.84s-31.16 3.86-44.41-4.94c0 0-1.5 4.6.28 5.37 1.78.77 22.19 7.72 42.96 3.71 0 0 3.52-1.37 1.17-4.14zM1965.07 2209.55c0 5.6-10.81 10.14-24.15 10.14-13.34 0-25.7-4.39-25.7-9.99s12.36-10.29 25.7-10.29 24.15 4.54 24.15 10.14z"/><path fill="#d8c899" d="M746.21 2347.43s-17.81-17.81-8.56-39.55c9.25-21.74 37.01-18.27 37.01-18.27s-8.1-24.56 22.67-34.6c30.77-10.04 47.42 22.34 47.42 22.34s1.62-16.19 15.73-15.03c14.11 1.16 8.79 20.82 3.01 24.98 0 0 15.96-14.8 25.91-2.08s-15.03 15.04-15.03 15.04 22.21-3.56 29.38 9.67c7.17 13.23-5.09 19.7-5.09 19.7s16.42-6.48 20.82 2.08c4.4 8.56-22.44 14.57-22.44 14.57l-150.83 1.15z"/><path fill="#c6b381" d="M735.44 2347.43s-13.29-13.29-6.38-29.51c6.9-16.22 27.61-13.63 27.61-13.63s-6.04-18.32 16.91-25.82c22.95-7.49 35.38 16.67 35.38 16.67s1.21-12.08 11.73-11.22c10.53.86 6.56 15.53 2.24 18.64 0 0 11.91-11.04 19.33-1.55 7.42 9.49-11.22 11.22-11.22 11.22s16.57-2.65 21.92 7.21c5.35 9.87-3.8 14.7-3.8 14.7s12.25-4.83 15.53 1.55c3.28 6.38-16.74 10.87-16.74 10.87l-112.51.87z"/><path fill="#d8c899" d="M776.43 2347.43s26.23-26.23 12.6-58.25c-13.63-32.02-54.5-26.91-54.5-26.91s11.92-36.17-33.38-50.96c-45.31-14.78-69.83 32.91-69.83 32.91s-2.38-23.84-23.16-22.14c-20.78 1.7-12.94 30.66-4.43 36.79 0 0-23.51-21.8-38.15-3.06-14.65 18.74 22.14 22.15 22.14 22.15s-32.7-5.24-43.26 14.24c-10.56 19.48 7.5 29.02 7.5 29.02s-24.19-9.54-30.66 3.06c-6.47 12.6 33.04 21.46 33.04 21.46l222.09 1.69z"/><path fill="#c6b381" d="M772.99 2299.15c-12.32-18.18-57.07-21.2-57.07-21.2s11.89-22.85-4.19-38.24c-16.08-15.38-58.68-6.99-70.94 14.68 0 0-14.3-8.39-24.47-6.99-10.17 1.4-9.47 24.47-9.47 24.47s-3.15-11.19-16.26-6.99c-13.11 4.2 1.26 18.7 1.26 18.7s-21.36-.51-31.15 12.77 5.59 32.86 5.59 32.86-29.11-10.94-33.08 9.56c-8.15-3.71-14.9-8.71-11.92-14.51 6.47-12.6 30.66-3.06 30.66-3.06s-18.06-9.54-7.5-29.02c8.94-16.49 33.75-15.26 41.15-14.5-7.6-1.08-32.52-5.91-20.02-21.89 12.68-16.23 32.01-2.05 36.96 2.03-8-7.79-14.18-34.13 5.62-35.76 20.78-1.7 23.16 22.14 23.16 22.14s24.53-47.69 69.83-32.91c45.31 14.79 33.38 50.96 33.38 50.96s40.88-5.11 54.5 26.91c13.63 32.02-12.6 58.25-12.6 58.25s8.88-30.08-3.44-48.26z"/><path fill="#d8c899" d="M2633.55 1531.89c0 8.02 6.51 14.52 14.53 14.52 8.01 0 14.51-6.5 14.51-14.52s-6.5-14.52-14.51-14.52c-8.02 0-14.53 6.5-14.53 14.52zM2518 1423.51c0 8.44 6.83 15.28 15.28 15.28 8.43 0 15.27-6.85 15.27-15.28 0-8.44-6.84-15.29-15.27-15.29-8.44 0-15.28 6.85-15.28 15.29z"/><path fill="#d8c899" d="M2555.7 1579.93c4.92 15.04 4.23 31.28 3.68 47.1-1.66 48.59-1.51 97.26.45 145.85.26 5.97 1.03 12.88 6.07 16.08 1.91 1.2 4.13 1.64 6.39 1.82h11.87c12.43-.4 24.84-1.86 36.98-4.47 1.71-.36 3.44-.74 5.13-1.16 2.08-31.88 4.19-63.74 6.31-95.61.29-4.41.66-9.09 3.21-12.68 6.16-8.65 20.06-5.83 29.11-11.43 9.63-5.94 10.98-19.22 10.72-30.54a74.66 74.66 0 0 0-.11-2.99c-.45-14.45-1.81-28.89-4.09-43.18-.24-1.42-.61-2.96-1.11-4.43-1.85-5.31-5.49-10.14-10.43-8.58-2.14.69-3.69 2.51-4.99 4.32-5.46 7.77-8.16 17.4-7.52 26.89.45 7.13 2.74 14.15 2.35 21.31-.42 7.13-4.81 14.92-11.94 15.73-7.42.88-13.34-5.96-17.06-12.46-2.22-3.81-4.18-7.78-5.78-11.92-2.46-5.99-4.2-12.25-4.94-18.66-1.87-16.27 2.64-32.51 6.6-48.4a733.112 733.112 0 0 0 19.65-122.21c.74-9.72 1.24-19.73-1.82-28.97-3.07-9.27-10.48-17.71-20.14-19.15-3.38-.5-6.71-.13-9.89.85-6.12 1.9-11.78 6.1-16.24 10.85-18.62 19.73-23.69 48.43-25.85 75.47a538.17 538.17 0 0 0-.65 77.45c-.91-.34-1.82-.71-2.69-1.11-25.14-10.77-43.65-35.77-46.4-63-1.28-12.83.53-26.36-4.65-38.19-1.71-3.93-4.83-7.93-9.11-8.08-6.75-.24-9.74 8.34-10.48 15.05-1.9 16.98-2.77 34.09-2.61 51.17.2 21.18 2.56 43.84 16.08 60.16 12.68 15.35 34.68 22.31 53.9 17.12z"/><path fill="#f5efd2" d="M2607.02 1739.44c2.28 18.04 3.89 30.93 5.04 40.12.2 1.66 1.8 2.75 3.43 2.38.02-.01.03-.01.04-.01a2.787 2.787 0 0 0 2.16-2.55c2.04-31.18 4.11-62.37 6.18-93.55.29-4.41.66-9.09 3.21-12.68 6.16-8.65 20.06-5.83 29.11-11.43 6.17-3.8 7.24-19.06 3.83-20.33-2.64 4.01-5.75 7.67-8.98 9.51-34.15 19.39-51.94 25.45-44.02 88.54zM2606.53 1614.89c1.87 2.88 3.56 5.18 5.15 6.97-2.46-5.99-4.2-12.25-4.94-18.66-1.87-16.27 2.64-32.51 6.6-48.4a732.06 732.06 0 0 0 19.64-122.21c.74-9.72 1.24-19.73-1.82-28.97-3.07-9.27-10.48-17.71-20.14-19.15-3.38-.5-6.71-.13-9.89.85 5.31 3.65 19.87 18.01 15.43 64.09-5.41 56.08-32.47 130.95-10.03 165.48zM2504.45 1450.89v41.98c0 25.08 6.71 59.41 51.05 59.2-25.14-10.77-43.65-35.77-46.4-63-1.29-12.83.52-26.35-4.65-38.18z" opacity=".5"/><path fill="#d8c899" d="M2517.89 1790.78h85.8c-24.15-109.05-92.98-101.16-175.66-202.48 6.61 110.84 18.95 143.02 89.86 202.48z"/><path fill="#8c705b" d="m2503.24 1720.67 17.42 7.87 10.56 17.06-24.38-4.95 29.31 12.94 4.1 6.61 5.21 8.43-35.97-3.62 40.16 10.4 9.5 15.37h6.77l-10.6-13.23 5.07-9.76-6.66 5.37-12.65-19.7 4.06-26.78-6.21 21.13-19.94-31.61.83-21.67-4.32 15.88-27.17-34.15 28.3 45.75z" opacity=".5"/><path fill="#a59063" d="M2575.54 1791.49c-11.67-24.97-40.35-66.98-104.96-82.75 0 0-.14 49.06 20.73 82.75h84.23z"/><path fill="#8c705b" d="m2509.83 1773.94 9.65 2.15 7.48 8.17-12.71.39 16.21 3.43 2.9 3.17.22.24h3.19l-3.89-4.12-1.53-15.49-.28 12.61-14.04-15.08-2.46-12.21-.04 9.43-17.95-15.56 20.05 21.9z" opacity=".5"/><path fill="#a59063" d="M2636.38 1791.49c4.13-18.48 8.1-67.85-47.08-121.03 0 0-29.5 74.77-7.94 121.03h55.02z"/><path fill="#8c705b" d="m2604.1 1783 1.83 8.49h2.86l-2.24-6.58 4.09-4.7-4.13 2.11-2.98-12.55 6.5-14.18-6.58 10.75-4.57-20.12 3.99-11.8-4.77 8.15-7.67-22.43 6.35 28.98-6.4-2.59 7.25 6.74 2.4 10.8-11.19-6.09 12.25 11.13.94 4.22 1.11 5.37-17.08-6.92z" opacity=".5"/><path fill="#d8c899" d="M2515.61 1831.44s-14.99-14.99-7.2-33.29c7.79-18.3 31.15-15.38 31.15-15.38s-6.81-20.67 19.08-29.12c25.89-8.45 39.91 18.81 39.91 18.81s1.36-13.63 13.24-12.65c11.88.97 7.4 17.52 2.53 21.02 0 0 13.43-12.46 21.8-1.75 8.37 10.71-12.65 12.66-12.65 12.66s18.69-2.99 24.72 8.14c6.04 11.13-4.28 16.58-4.28 16.58s13.82-5.45 17.52 1.75c3.7 7.2-18.88 12.26-18.88 12.26l-126.94.97z"/><path fill="#c6b381" d="M2506.54 1831.44s-11.18-11.18-5.37-24.84c5.81-13.65 23.24-11.47 23.24-11.47s-5.08-15.42 14.23-21.73c19.32-6.3 29.77 14.03 29.77 14.03s1.02-10.17 9.88-9.44c8.86.73 5.52 13.07 1.89 15.68 0 0 10.02-9.29 16.27-1.31 6.25 7.99-9.44 9.45-9.44 9.45s13.94-2.23 18.45 6.07c4.5 8.31-3.2 12.37-3.2 12.37s10.31-4.07 13.07 1.31c2.76 5.37-14.09 9.15-14.09 9.15l-94.7.73z"/><path fill="#d8c899" d="M2541.04 1831.44s22.08-22.08 10.61-49.03c-11.47-26.95-45.87-22.65-45.87-22.65s10.03-30.44-28.1-42.89c-38.13-12.44-58.77 27.7-58.77 27.7s-2.01-20.07-19.5-18.63c-17.49 1.43-10.89 25.8-3.73 30.96 0 0-19.78-18.35-32.11-2.58-12.33 15.77 18.63 18.64 18.63 18.64s-27.52-4.41-36.41 11.98c-8.89 16.39 6.31 24.42 6.31 24.42s-20.36-8.03-25.8 2.58c-5.45 10.61 27.81 18.06 27.81 18.06l186.93 1.44z"/><path fill="#c6b381" d="M2538.15 1790.8c-10.37-15.3-48.03-17.84-48.03-17.84s10.01-19.23-3.53-32.18-49.38-5.88-59.71 12.36c0 0-12.04-7.06-20.6-5.89-8.56 1.18-7.97 20.6-7.97 20.6s-2.65-9.42-13.68-5.88c-11.03 3.53 1.06 15.73 1.06 15.73s-17.98-.43-26.22 10.75c-8.24 11.18 4.71 27.66 4.71 27.66s-24.5-9.21-27.84 8.05c-6.86-3.13-12.54-7.33-10.04-12.21 5.45-10.61 25.8-2.58 25.8-2.58s-15.2-8.03-6.31-24.42c7.52-13.88 28.4-12.84 34.63-12.2-6.39-.91-27.37-4.97-16.85-18.42 10.68-13.66 26.94-1.73 31.1 1.71-6.73-6.55-11.93-28.73 4.73-30.09 17.49-1.43 19.5 18.63 19.5 18.63s20.64-40.14 58.77-27.7c38.13 12.44 28.1 42.89 28.1 42.89s34.4-4.3 45.87 22.65c11.47 26.95-10.61 49.03-10.61 49.03s7.49-25.35-2.88-40.65z"/><path fill="#f4f2ea" d="M550.19 811.34c-1.19 0-2.39.04-3.58.07-3.73-17.19-18.97-30.08-37.28-30.08-8.36 0-16.07 2.75-22.37 7.28-13.39-13.14-31.74-21.25-52.01-21.25-24.76 0-46.66 12.13-60.16 30.73-2.68-1.09-5.61-1.7-8.65-1.7-12.78 0-23.13 10.35-23.13 23.09 0 2.21.33 4.34.91 6.33-25.41 4.05-44.88 26.02-44.88 52.59 0 4.31-1.74 9.92 1.48 12.45 66.9 52.47 290.17 68.82 340.1 0 26.55-36.61-44.03-79.51-90.43-79.51zM2356.85 670.13c-18.92-.82-36.72 4.3-51.62 13.68-10.39-23.6-33.48-40.53-60.98-41.72-38.58-1.67-71.2 28.25-72.87 66.82-.24 5.45.18 10.77 1.14 15.91-9.92-8.1-22.44-13.18-36.22-13.77-33.97-1.47-62.93 24.86-64.17 58.84-2.08 56.83 146.62 126.44 271.3 79.05 1.87.2 3.76.36 5.66.44 49.5 2.15 91.37-36.24 93.51-85.74 2.14-49.5-36.25-91.37-85.75-93.51z"/></svg>