<?xml version="1.0" standalone="no"?>
<!DOCTYPE svg PUBLIC "-//W3C//DTD SVG 20010904//EN"
 "http://www.w3.org/TR/2001/REC-SVG-20010904/DTD/svg10.dtd">
<svg version="1.0" xmlns="http://www.w3.org/2000/svg"
 width="3000.000000pt" height="3000.000000pt" viewBox="0 0 3000.000000 3000.000000"
 preserveAspectRatio="xMidYMid meet">

<g transform="translate(0.000000,3000.000000) scale(0.100000,-0.100000)"
fill="#000000" stroke="none">
<path d="M5971 27768 c-27 -94 0 -413 84 -993 127 -882 141 -977 265 -1790 34
-220 66 -429 71 -465 15 -107 114 -758 205 -1350 47 -305 94 -609 104 -675 10
-66 53 -343 95 -615 92 -593 109 -705 135 -875 27 -178 126 -817 200 -1290 22
-143 54 -348 70 -455 16 -107 59 -384 95 -615 36 -231 81 -519 100 -640 19
-121 43 -281 55 -355 11 -74 27 -178 36 -230 8 -52 19 -122 24 -155 27 -168
65 -413 110 -710 28 -181 64 -413 80 -515 16 -102 48 -304 71 -450 22 -146 49
-321 60 -390 11 -69 28 -181 39 -250 37 -246 89 -578 114 -735 38 -237 104
-652 126 -795 31 -208 99 -649 115 -745 8 -49 28 -175 44 -280 17 -104 53
-336 81 -515 27 -179 61 -397 75 -485 14 -88 39 -248 56 -355 43 -278 237
-1513 249 -1585 5 -33 19 -118 30 -190 11 -71 25 -157 30 -190 6 -33 19 -118
30 -190 11 -71 36 -229 55 -350 19 -121 46 -296 60 -390 14 -93 30 -192 35
-220 6 -27 19 -108 29 -180 11 -71 74 -472 140 -890 67 -418 131 -818 142
-890 11 -71 31 -195 44 -275 13 -80 58 -359 99 -620 97 -608 304 -1849 351
-2091 58 -310 91 -398 198 -537 120 -157 286 -282 422 -318 100 -27 422 -36
1050 -30 336 4 646 9 690 11 44 3 262 7 485 10 223 3 592 10 820 15 228 6 611
15 850 20 239 6 728 17 1085 25 980 23 2646 64 2855 70 102 3 635 17 1185 30
550 13 1095 27 1210 30 508 13 1354 35 1740 45 231 6 857 22 1390 35 1212 30
1725 40 1725 31 0 -3 -10 -16 -22 -28 -20 -20 -75 -29 -234 -37 -11 -1 -39
-50 -36 -63 1 -4 -15 -19 -36 -32 -31 -20 -55 -25 -147 -31 -106 -6 -135 -15
-135 -39 0 -6 -11 -27 -24 -47 l-25 -36 -133 -6 c-156 -7 -173 -11 -175 -39
-2 -27 -41 -68 -65 -68 -11 0 -16 -4 -13 -10 4 -6 -13 -10 -42 -11 -66 -2
-330 -16 -433 -23 -47 -4 -103 -7 -125 -7 -34 0 -37 -1 -17 -9 12 -5 22 -15
22 -22 0 -10 -2 -10 -9 1 -5 7 -14 10 -20 7 -6 -4 -9 -11 -6 -16 5 -9 -46 -41
-62 -40 -7 1 -62 -5 -135 -14 -9 -1 -23 -8 -31 -15 -12 -9 -67 -12 -214 -11
-109 1 -202 0 -208 -1 -5 -2 -68 -4 -140 -4 -71 0 -235 -4 -362 -8 -226 -8
-233 -7 -233 11 0 23 25 46 39 37 6 -3 24 1 41 10 16 8 30 13 30 9 0 -4 7 0
17 7 13 11 17 11 20 1 3 -6 10 -9 16 -5 16 10 66 10 60 0 -2 -4 8 -5 24 -2 15
4 58 8 95 10 37 2 72 6 77 9 5 4 12 2 16 -3 3 -5 14 -8 25 -6 11 2 22 -1 26
-6 4 -6 11 -6 20 2 9 7 14 8 14 1 0 -11 38 -5 55 9 6 4 49 11 95 14 109 7 110
7 110 17 0 5 -55 9 -122 8 -68 -1 -139 0 -158 0 l-35 2 30 9 c17 5 35 7 41 5
6 -2 11 2 11 10 0 7 -3 12 -6 10 -3 -2 -15 0 -26 4 -15 6 -10 8 20 8 64 -1 77
1 71 11 -3 5 16 11 42 14 84 10 117 18 132 33 12 12 -4 14 -120 15 -74 0 -155
4 -180 8 -44 8 -45 8 -15 16 16 5 38 17 50 28 11 11 14 16 6 12 -9 -5 -12 -4
-7 3 4 7 15 12 25 12 10 0 21 9 24 20 5 19 0 20 -183 20 -115 0 -191 4 -195
10 -3 6 -13 10 -22 10 -8 0 -34 20 -57 45 l-43 45 -174 0 c-96 0 -336 -4 -534
-10 -198 -5 -562 -14 -810 -20 -247 -5 -486 -13 -531 -16 l-81 -6 19 -55 c10
-31 31 -121 47 -200 29 -145 46 -183 81 -183 9 0 41 -17 71 -38 120 -84 124
-84 703 -83 275 1 502 3 505 5 10 7 224 21 272 19 26 -2 73 -10 105 -18 33 -9
70 -18 84 -20 59 -8 80 -24 104 -77 57 -123 66 -146 81 -213 8 -38 24 -106 35
-150 11 -44 26 -109 34 -145 l15 -65 -4 85 c-3 47 -7 96 -9 110 -17 103 -39
271 -35 274 2 3 202 8 444 11 465 6 597 14 840 46 418 56 783 134 1070 231
290 97 1092 436 1315 555 325 174 526 393 589 645 23 93 18 143 -18 166 -14 9
-28 19 -31 22 -13 13 -79 42 -110 47 -68 11 -279 0 -335 -18 -16 -5 -77 -8
-135 -7 -58 1 -172 1 -255 0 -82 -2 -204 -3 -270 -3 -66 0 -147 -2 -180 -4
-89 -7 -610 -19 -630 -15 -5 1 -12 2 -15 2 -21 -1 -500 -14 -640 -17 -96 -2
-296 -7 -445 -11 -148 -3 -373 -8 -500 -9 -328 -4 -828 -14 -1047 -21 -103 -3
-306 -7 -450 -9 -538 -7 -885 -16 -953 -23 -38 -4 -89 -5 -112 -2 -23 4 -97 5
-165 4 -272 -5 -577 -15 -638 -19 -36 -3 -69 -6 -75 -6 -5 0 -44 0 -85 1 -89
1 -540 -7 -865 -16 -126 -3 -383 -7 -570 -9 -187 -2 -425 -6 -530 -10 -334
-11 -480 -16 -495 -15 -143 3 -492 0 -580 -5 -63 -3 -245 -8 -405 -10 -285 -5
-510 -11 -530 -15 -5 -1 -14 -1 -20 0 -15 3 -297 -1 -405 -6 -52 -2 -135 -3
-185 -3 -49 0 -119 0 -155 0 -500 -10 -644 -13 -750 -17 -175 -6 -723 -15
-738 -12 -4 1 -131 -2 -282 -6 -461 -12 -766 -17 -1210 -22 -588 -5 -881 -11
-910 -17 -25 -5 -131 -21 -245 -37 -63 -9 -98 -17 -180 -46 -78 -27 -79 -27
-92 -25 -6 1 -14 -2 -17 -7 -9 -15 -178 -2 -216 16 -46 22 -97 100 -105 163
-4 27 -11 52 -16 55 -5 3 -7 9 -4 14 3 4 0 32 -5 61 -6 30 -13 68 -16 84 -2
17 -8 44 -13 60 -5 17 -9 41 -10 55 -1 25 -8 65 -11 65 -3 0 -11 41 -15 75 -2
19 -8 60 -14 90 -5 30 -12 75 -14 100 -1 25 -5 50 -8 55 -3 6 -7 30 -8 55 -1
25 -9 65 -18 90 -8 25 -17 65 -19 90 -4 47 -14 134 -18 160 -2 8 -8 35 -15 59
-7 23 -10 49 -7 57 3 8 2 14 -3 14 -4 0 -8 6 -8 13 0 20 -13 130 -20 167 -3
19 -7 46 -9 60 -1 14 -3 26 -4 28 -9 9 -32 199 -31 255 0 9 -4 17 -9 17 -4 0
-10 15 -13 33 -3 17 -8 43 -11 57 -3 14 -9 45 -12 70 -3 25 -7 59 -10 75 -3
17 -7 52 -9 78 -3 26 -7 51 -9 56 -3 4 -8 32 -11 62 -6 55 -12 92 -15 97 -4 4
-6 16 -14 87 -5 39 -10 79 -13 90 -4 20 -15 99 -16 123 0 6 -3 12 -7 12 -4 0
-6 10 -5 23 1 12 -3 40 -8 62 -17 71 -24 117 -32 205 -4 36 -11 84 -16 107 -5
24 -8 46 -7 50 1 5 -4 33 -10 63 -27 120 -30 139 -37 224 -3 32 -10 79 -15
103 -6 24 -8 48 -5 53 3 4 1 19 -4 33 -9 22 -15 50 -27 122 -3 17 -10 54 -15
83 -6 30 -9 56 -6 58 2 3 -2 34 -9 70 -8 36 -12 69 -9 74 2 4 -2 32 -9 61 -8
30 -12 57 -10 61 3 5 1 8 -5 8 -6 0 -9 17 -7 40 2 22 0 43 -5 46 -5 3 -7 9 -4
14 3 5 -2 37 -10 72 -9 35 -18 83 -21 108 -2 25 -9 70 -14 100 -6 30 -12 73
-15 95 -6 54 -13 100 -15 100 -3 0 -8 42 -15 115 -3 41 -13 116 -21 167 -8 50
-17 104 -19 120 -2 15 -4 28 -5 28 -1 0 -3 19 -5 42 -2 23 -9 52 -16 64 -9 17
-8 20 2 14 8 -6 10 -4 4 4 -7 12 -15 88 -15 138 0 12 -4 24 -9 28 -5 3 -7 14
-4 24 3 11 -1 37 -8 58 -7 21 -13 48 -15 60 -1 13 -6 42 -10 65 -4 24 -8 50
-9 58 -1 8 -8 59 -14 112 -7 54 -16 111 -21 128 -5 16 -7 30 -4 30 3 0 0 8 -5
18 -6 10 -13 57 -16 103 -4 46 -11 91 -16 100 -5 9 -9 32 -10 50 -1 19 -10 86
-20 150 -11 63 -21 139 -24 169 -3 29 -10 71 -15 94 -5 23 -10 60 -10 83 0 23
-4 44 -8 47 -5 3 -9 26 -11 51 -1 25 -6 58 -12 72 -5 14 -8 28 -5 30 2 3 -2
28 -11 55 -8 28 -13 62 -10 75 2 13 1 25 -2 27 -4 3 -6 22 -5 43 1 21 -1 43
-6 48 -4 6 -7 17 -7 25 0 8 -3 33 -7 55 -4 22 -8 51 -11 65 -2 14 -8 57 -15
95 -6 39 -11 81 -12 95 0 14 -5 39 -10 57 -8 29 -13 66 -22 173 -6 61 -18 134
-27 157 -5 13 -6 30 -3 38 4 8 2 15 -3 15 -6 0 -11 26 -12 58 -1 56 -4 72 -17
125 -3 12 -8 47 -11 77 -3 30 -8 57 -12 60 -3 3 -7 14 -8 25 -3 20 -12 106
-18 160 -1 17 -4 30 -5 30 -1 0 -4 9 -5 20 -1 11 -5 36 -9 55 -4 19 -9 57 -12
84 -2 27 -7 53 -9 57 -3 4 -8 34 -11 66 -3 32 -13 101 -21 153 -8 52 -16 112
-16 133 -1 20 -4 37 -7 37 -3 0 -6 10 -6 23 -3 44 -20 160 -30 197 -3 14 -6
36 -6 50 1 14 -1 32 -5 40 -3 8 -6 35 -8 60 -4 68 -16 143 -27 163 -5 10 -8
25 -7 35 2 9 -3 41 -10 70 -7 29 -11 56 -8 59 3 3 1 17 -5 32 -6 14 -11 40
-12 56 -5 65 -19 155 -25 155 -3 0 -7 21 -8 48 -2 49 -12 132 -19 167 -2 11
-9 56 -14 100 -14 112 -17 132 -30 195 -7 30 -14 71 -16 90 -3 19 -8 51 -13
70 -4 19 -7 56 -7 83 1 26 -1 47 -4 47 -5 0 -10 40 -14 110 -1 19 -5 42 -8 50
-3 8 -11 60 -17 115 -12 108 -18 144 -29 190 -5 17 -7 42 -7 57 1 15 -2 25 -6
23 -6 -4 -12 35 -25 155 -3 25 -11 68 -18 95 -7 28 -12 62 -12 78 1 15 -1 27
-4 27 -3 0 -7 10 -7 23 -2 23 -6 56 -23 177 -6 41 -11 92 -11 113 0 20 -5 37
-10 37 -5 0 -7 11 -3 25 3 14 2 25 -2 25 -5 0 -9 17 -10 37 0 21 -3 56 -7 78
-7 38 -11 70 -22 168 -6 57 -16 111 -36 187 -6 25 -11 54 -11 64 1 11 -4 28
-9 39 -8 14 -8 17 0 13 6 -4 11 -3 11 3 0 5 -5 13 -11 17 -6 3 -8 16 -5 28 3
11 1 35 -4 51 -4 17 -13 66 -19 110 -6 44 -13 91 -16 105 -7 25 -15 107 -18
167 -1 18 -5 33 -9 33 -3 0 -5 8 -3 18 1 9 -3 23 -9 31 -9 12 -8 13 2 7 11 -7
11 -2 -1 20 -8 16 -15 52 -16 81 -2 54 -3 64 -22 153 -7 30 -13 78 -14 105 0
28 -6 59 -12 71 -7 12 -8 26 -3 34 5 8 5 21 -1 31 -5 10 -9 32 -9 49 0 17 -4
29 -9 26 -4 -3 -7 11 -6 30 1 20 -5 68 -12 108 -8 39 -16 91 -18 116 -5 64
-11 95 -19 109 -5 7 -10 38 -12 69 -2 31 -6 73 -9 92 -3 19 -7 49 -9 67 -3 17
-7 42 -11 54 -4 13 -9 50 -11 83 -3 61 -7 88 -19 136 -4 14 -11 60 -17 103 -6
42 -14 77 -19 77 -5 0 -6 6 -3 13 3 8 0 25 -5 40 -7 17 -7 28 0 32 5 4 6 12 2
18 -5 7 -9 32 -9 57 -2 56 -10 113 -25 165 -6 22 -12 54 -14 70 -5 49 -15 128
-20 160 -3 17 -8 62 -11 100 -7 73 -11 110 -14 110 -2 0 -8 31 -14 70 -3 17
-7 41 -10 55 -3 14 -7 41 -10 60 -2 19 -7 47 -10 62 -4 16 -8 40 -11 55 -2 16
-6 42 -9 58 -3 17 -7 46 -10 65 -2 20 -7 47 -11 60 -3 14 -7 66 -9 115 -2 50
-8 101 -14 115 -5 14 -12 43 -16 65 -3 22 -8 51 -11 65 -3 14 -6 40 -7 58 -1
17 -5 32 -11 32 -5 0 -7 6 -4 14 3 8 0 34 -7 58 -6 23 -12 58 -11 76 1 17 -1
32 -4 32 -3 0 -7 21 -9 48 -1 26 -9 101 -18 167 -9 66 -17 127 -18 135 -1 9
-4 20 -7 25 -3 6 -7 30 -8 55 -2 25 -7 52 -12 62 -5 9 -7 23 -4 31 3 7 -1 47
-9 88 -14 66 -28 158 -42 274 -3 22 -9 54 -13 70 -4 17 -7 40 -6 53 1 12 -1
22 -5 22 -4 0 -5 16 -3 36 2 20 -2 42 -8 50 -9 11 -8 14 2 14 9 0 10 3 3 8 -5
4 -11 16 -12 27 -5 68 -16 133 -24 149 -7 14 -7 16 2 11 9 -6 9 -3 1 12 -6 11
-8 23 -5 26 3 3 0 16 -7 29 -7 12 -13 48 -15 78 -1 30 -5 66 -9 80 -6 27 -7
30 -25 160 -13 86 -16 115 -21 183 -2 20 -6 37 -9 37 -3 0 -6 8 -7 18 -1 28
-28 198 -40 257 -4 17 -7 47 -7 67 -1 21 -5 38 -10 38 -4 0 -6 6 -3 13 2 7 -2
41 -9 77 -8 36 -12 71 -9 78 2 6 0 12 -4 12 -5 0 -9 10 -8 23 0 12 -3 45 -7
72 -4 28 -9 66 -11 85 -2 19 -6 46 -10 60 -8 34 -23 122 -24 140 -1 35 -10
125 -12 125 -2 0 -6 29 -13 109 -4 38 -9 73 -13 79 -3 6 -7 24 -8 41 -2 29
-10 101 -20 173 -2 17 -9 51 -15 75 -16 58 -19 74 -25 132 -3 27 -7 52 -10 56
-3 4 -5 30 -6 56 0 27 -5 74 -10 104 -4 30 -11 78 -14 105 -3 28 -9 64 -12 80
-3 17 -7 41 -9 55 -1 14 -10 66 -18 115 -9 50 -18 110 -21 134 -3 25 -8 56
-12 69 -3 14 -7 39 -8 56 -2 17 -4 31 -5 31 -4 0 -8 33 -14 120 -4 50 -9 104
-12 120 -2 17 -5 37 -6 45 0 8 -4 20 -9 25 -7 10 -25 132 -21 148 1 4 -1 7 -5
7 -5 0 -8 15 -9 33 0 38 -11 93 -23 116 -4 9 -9 34 -10 56 -1 22 -6 56 -10 77
-6 25 -5 39 3 42 6 2 7 5 1 5 -5 1 -10 20 -9 43 0 24 -3 57 -7 73 -4 17 -10
53 -13 80 -3 28 -10 77 -16 110 -6 33 -14 76 -16 95 -3 19 -9 49 -14 65 -4 17
-8 37 -9 45 -1 65 -13 180 -20 205 -8 28 -11 50 -15 103 0 12 -4 22 -8 22 -3
0 -5 8 -4 17 2 10 -1 33 -5 53 -5 19 -11 71 -14 115 -4 43 -9 84 -13 90 -4 5
-7 15 -8 20 -11 73 -16 121 -19 175 -2 36 -7 76 -9 90 -3 14 -8 38 -12 53 -3
16 -8 38 -10 50 -2 12 -8 47 -13 77 -12 67 -21 138 -26 204 -2 27 -7 56 -10
65 -4 9 -9 50 -11 91 -3 41 -10 100 -16 130 -6 30 -11 64 -13 75 -7 64 -18
131 -23 140 -3 5 -6 24 -5 42 0 18 -3 30 -7 28 -4 -3 -11 16 -15 40 -3 25 -13
62 -22 82 -8 20 -16 48 -18 62 -2 14 -4 26 -5 26 -1 0 -3 9 -5 20 -11 68 -37
130 -64 156 -17 16 -31 26 -31 22 0 -5 -4 -3 -8 3 -4 6 -34 24 -67 40 -50 24
-72 29 -139 29 -77 0 -80 1 -86 25 -5 22 -8 19 -19 -22z m16769 -25840 c0 -5
-26 -7 -57 -7 -43 1 -50 3 -29 8 40 8 86 8 86 -1z m89 -3 c2 -3 -14 -5 -37 -5
-23 0 -42 4 -42 9 0 9 69 5 79 -4z"/>
<path d="M18885 27120 c-148 -4 -398 -10 -555 -14 -157 -3 -348 -9 -425 -11
-77 -3 -516 -15 -975 -25 -459 -11 -1004 -24 -1210 -30 -206 -5 -490 -12 -630
-15 -140 -3 -320 -7 -400 -10 -80 -3 -253 -7 -385 -10 -132 -3 -323 -8 -425
-10 -102 -3 -369 -10 -595 -15 -225 -5 -502 -12 -615 -15 -518 -13 -987 -25
-1225 -30 -143 -3 -305 -7 -360 -10 -55 -2 -239 -7 -410 -11 -170 -4 -321 -8
-335 -10 -14 -1 -42 -3 -64 -3 l-39 -1 8 -92 c22 -285 22 -292 3 -493 -17
-177 -26 -221 -70 -380 -45 -159 -62 -200 -140 -350 -78 -150 -101 -185 -200
-302 -97 -113 -133 -148 -253 -237 -129 -95 -153 -109 -303 -170 -100 -41
-176 -66 -200 -66 -20 0 -83 -7 -139 -17 -95 -15 -102 -18 -98 -37 3 -12 24
-140 46 -286 22 -146 46 -303 54 -350 7 -47 45 -290 84 -540 39 -250 93 -599
121 -775 27 -176 61 -394 75 -485 14 -91 41 -264 61 -385 38 -246 151 -970
164 -1055 19 -127 61 -399 70 -455 16 -98 36 -231 90 -575 28 -179 59 -381 70
-450 29 -182 159 -1023 200 -1290 12 -74 30 -189 40 -255 96 -610 167 -1067
235 -1505 36 -234 70 -453 75 -487 12 -79 20 -126 69 -443 22 -140 56 -358 77
-485 20 -126 42 -270 49 -320 7 -49 23 -148 34 -220 28 -181 86 -554 121 -780
16 -104 50 -323 75 -485 25 -162 59 -378 75 -480 16 -102 40 -257 54 -345 29
-181 106 -681 137 -885 11 -74 36 -229 54 -345 19 -115 52 -329 75 -475 74
-483 130 -844 140 -905 6 -33 21 -134 35 -225 14 -91 34 -219 45 -285 11 -66
36 -226 55 -355 20 -129 47 -305 61 -390 13 -85 29 -184 34 -220 5 -36 23
-153 40 -260 17 -107 40 -253 51 -325 11 -71 33 -213 49 -315 66 -427 141
-909 151 -966 l10 -60 147 -13 c131 -12 167 -19 322 -68 153 -48 197 -67 349
-151 137 -76 200 -119 300 -202 69 -58 138 -115 153 -126 15 -12 58 -58 95
-102 38 -44 100 -117 139 -163 39 -46 97 -127 129 -179 32 -52 72 -118 90
-146 47 -73 65 -109 149 -312 71 -169 131 -372 163 -551 l6 -33 216 6 c119 3
284 8 366 11 83 3 260 7 395 10 419 10 1406 34 1595 40 99 3 468 12 820 20
352 8 811 20 1020 25 385 10 606 16 995 25 118 3 301 8 405 10 105 3 465 12
800 20 336 8 788 20 1005 25 217 6 573 15 790 20 217 5 493 13 613 16 l217 7
-5 61 c-23 263 -24 330 -4 528 17 178 25 217 74 386 47 163 65 208 135 342 92
174 81 157 214 315 82 98 122 134 240 222 129 95 156 111 292 165 98 40 171
63 214 68 87 11 262 39 266 43 2 2 -3 41 -10 88 -8 46 -31 188 -51 314 -38
240 -43 274 -125 805 -28 179 -59 381 -70 450 -20 131 -45 291 -105 675 -20
127 -47 300 -60 385 -13 85 -40 259 -60 385 -41 266 -66 428 -100 645 -63 395
-188 1198 -205 1310 -23 157 -76 496 -95 615 -8 50 -26 162 -39 250 -14 88
-41 264 -61 390 -20 127 -45 289 -56 360 -11 72 -24 155 -29 185 -9 55 -124
790 -160 1030 -11 69 -26 168 -34 220 -47 296 -99 627 -111 705 -7 50 -27 178
-44 285 -72 458 -104 662 -146 940 -42 267 -102 655 -216 1380 -22 140 -46
298 -54 350 -8 52 -33 212 -55 355 -22 143 -44 285 -50 315 -5 30 -23 145 -40
255 -16 110 -52 342 -79 515 -59 373 -194 1242 -221 1420 -11 69 -36 229 -55
355 -63 396 -73 461 -125 795 -28 179 -73 471 -101 650 -27 179 -65 422 -84
540 -19 118 -50 316 -69 440 -76 493 -157 1016 -162 1041 -5 26 -5 26 -162 38
-166 13 -167 14 -388 84 -114 36 -172 62 -305 137 -90 51 -174 100 -185 109
-30 22 -214 172 -248 202 -106 90 -310 344 -418 519 -127 207 -123 200 -209
410 -65 160 -133 390 -155 530 l-7 40 -161 -2 c-88 -1 -282 -4 -431 -8z
m-3370 -4428 c50 -34 164 -123 255 -198 419 -345 517 -416 756 -545 43 -23
124 -67 179 -97 55 -31 411 -211 790 -402 943 -474 1144 -586 1482 -828 444
-316 729 -627 940 -1022 99 -185 196 -447 252 -675 l28 -114 -46 -10 c-25 -6
-59 -12 -75 -13 -32 -3 -34 3 -67 137 -83 345 -278 744 -487 1000 -172 211
-450 460 -710 635 -28 19 -52 40 -52 47 0 7 -6 10 -13 7 -7 -2 -24 6 -37 18
-14 13 -28 22 -33 20 -5 -1 -6 2 -2 8 4 7 13 7 27 -1 15 -8 19 -8 14 0 -4 6
-16 16 -28 22 -13 7 -18 7 -14 1 4 -6 -2 -10 -14 -9 -11 1 -20 5 -20 10 0 4
-5 5 -10 2 -6 -3 -13 1 -16 9 -3 9 -14 16 -23 17 -13 0 -12 2 3 8 16 6 11 12
-30 38 -183 114 -469 263 -1159 606 -291 145 -594 299 -715 365 -36 19 -96 52
-135 72 -52 29 -77 37 -99 33 -20 -4 -27 -2 -22 5 4 6 14 8 24 5 44 -16 -30
32 -143 92 l-30 16 25 -20 c14 -11 29 -21 33 -21 5 0 5 -5 2 -11 -5 -6 -11 -4
-19 7 -7 9 -18 14 -24 10 -6 -3 -16 3 -22 14 -6 11 -15 18 -20 15 -6 -3 -54
23 -107 59 -98 65 -167 118 -408 316 -71 58 -156 128 -190 155 -33 28 -79 70
-101 94 l-41 44 -37 -49 c-99 -129 -353 -421 -454 -521 -121 -121 -202 -187
-407 -334 -120 -85 -586 -396 -803 -535 -687 -439 -1016 -698 -1266 -998 -148
-177 -314 -453 -330 -547 -3 -19 -14 -56 -25 -84 -10 -27 -26 -81 -35 -120 -9
-38 -21 -88 -27 -110 -27 -110 -42 -511 -26 -695 2 -24 2 -25 -73 -21 -41 1
-77 5 -79 7 -15 14 -23 453 -10 564 37 332 135 619 294 864 194 298 504 599
910 884 99 69 453 305 553 367 34 22 199 130 365 240 688 456 738 497 1072
885 111 129 235 265 276 302 85 76 64 78 204 -20z m987 -2884 c52 -28 84 -81
74 -122 -19 -75 -190 -196 -277 -196 -68 0 -62 30 15 70 25 12 57 35 72 51 25
27 27 31 12 45 -21 21 -107 19 -228 -5 -52 -10 -97 -17 -99 -15 -6 5 26 50 67
96 90 99 258 135 364 76z m-974 -20 c46 -46 -45 -111 -363 -260 -611 -285
-1315 -662 -1315 -704 0 -28 35 -103 108 -226 40 -71 78 -128 84 -128 12 0
226 91 424 181 213 96 449 195 664 279 282 111 290 114 546 198 492 163 666
197 804 156 70 -21 122 -57 193 -134 91 -97 92 -102 91 -275 0 -137 -3 -158
-28 -235 -52 -155 -111 -258 -275 -480 -131 -177 -328 -463 -481 -700 -57 -90
-106 -157 -108 -151 -6 18 56 266 95 376 60 172 158 339 304 520 40 50 75 92
78 95 3 3 33 37 67 75 134 154 224 285 224 326 0 35 -38 95 -89 141 -156 140
-397 129 -909 -42 -489 -163 -1139 -451 -1592 -705 -429 -241 -613 -362 -645
-425 -29 -57 1 -84 240 -217 140 -78 325 -188 435 -258 19 -12 127 -80 240
-150 232 -146 494 -320 559 -374 52 -42 95 -46 156 -15 22 11 94 48 160 82 66
34 143 69 172 77 29 9 57 23 62 33 6 12 0 45 -19 107 -15 50 -84 279 -154 510
-70 231 -139 454 -153 495 -13 41 -31 100 -39 130 -17 68 -30 333 -17 379 l9
34 115 -165 c240 -342 340 -528 285 -528 -7 0 -34 16 -59 35 -82 63 -99 43
-73 -84 27 -130 122 -412 182 -538 41 -85 68 -128 116 -178 52 -56 164 -145
182 -145 2 0 42 -23 88 -51 97 -59 149 -107 186 -169 24 -40 27 -57 31 -158 5
-156 -6 -166 -120 -112 -104 48 -172 62 -332 67 -159 6 -244 -5 -309 -38 -80
-41 -59 -66 252 -289 365 -263 438 -316 655 -475 424 -310 506 -365 545 -365
23 0 23 1 17 88 -3 48 -15 137 -26 197 -12 61 -26 135 -31 165 -46 254 -70
380 -159 835 -165 843 -193 1025 -174 1142 15 89 34 163 44 163 10 0 80 -130
219 -408 182 -364 243 -532 194 -532 -11 0 -56 39 -106 92 -49 50 -88 85 -88
77 0 -8 16 -95 35 -194 19 -99 46 -245 61 -325 57 -306 214 -1092 249 -1239
53 -230 75 -288 129 -337 63 -58 214 -131 311 -151 99 -20 168 -9 272 42 87
43 126 74 143 114 30 73 -48 483 -255 1346 -26 105 -53 222 -61 260 -8 39 -21
95 -29 125 -8 30 -40 168 -70 305 -31 138 -67 300 -81 360 -13 61 -45 205 -70
320 -84 388 -121 557 -263 1175 -69 304 -80 372 -82 502 0 104 2 123 18 139
17 17 38 5 71 -43 28 -41 42 -63 100 -168 14 -25 35 -61 48 -81 45 -72 204
-385 229 -452 28 -76 33 -127 11 -127 -17 0 -95 79 -198 200 -20 24 -28 29
-24 15 10 -34 131 -554 197 -845 22 -94 72 -311 95 -405 18 -79 77 -331 108
-470 14 -60 37 -159 51 -220 139 -593 262 -1186 307 -1481 26 -177 31 -238 32
-399 0 -129 -4 -204 -12 -235 -27 -90 -63 -152 -129 -216 -89 -86 -140 -106
-298 -111 -121 -5 -212 9 -347 51 -28 9 -50 11 -53 6 -3 -5 1 -33 10 -62 82
-265 216 -950 250 -1283 22 -218 31 -632 16 -732 -16 -100 -20 -113 -35 -113
-24 0 -37 68 -156 800 -70 435 -154 869 -263 1360 l-52 235 -100 78 c-55 43
-140 109 -190 148 -49 38 -133 102 -185 143 -52 42 -160 126 -239 188 -80 62
-179 140 -220 173 -101 80 -356 277 -456 352 -131 97 -179 128 -172 110 3 -9
54 -94 113 -189 197 -316 242 -421 269 -626 39 -295 -4 -480 -141 -614 -97
-94 -190 -145 -424 -233 -333 -125 -657 -355 -770 -545 -54 -91 -78 -187 -95
-380 -12 -137 27 -420 82 -595 28 -89 97 -232 143 -301 67 -96 182 -194 300
-254 191 -97 468 -132 715 -90 72 12 171 35 220 51 203 65 538 257 745 427 90
74 243 233 282 292 20 31 44 79 53 107 16 49 16 55 0 105 -10 29 -26 71 -35
93 -10 22 -44 101 -75 175 -32 74 -87 196 -122 270 -109 227 -192 419 -230
530 -32 95 -36 119 -42 253 -4 96 -3 147 4 147 21 0 396 -424 429 -485 23 -42
15 -70 -17 -61 -12 4 -43 9 -69 13 -44 5 -48 4 -48 -16 0 -25 27 -92 103 -251
208 -438 262 -741 176 -992 -31 -89 -62 -148 -142 -267 -139 -208 -172 -312
-171 -546 0 -238 36 -388 118 -488 66 -81 151 -114 223 -86 125 47 311 285
522 668 121 218 154 270 236 376 143 182 268 278 685 524 221 130 214 123 218
212 2 41 -4 137 -13 214 -24 199 -31 427 -15 522 24 152 99 281 191 328 40 21
95 15 143 -14 62 -39 154 -201 217 -381 70 -204 -1 -647 -132 -820 -23 -30
-53 -69 -66 -86 l-24 -32 83 -72 c156 -137 225 -143 400 -39 92 54 162 124
194 192 23 51 23 58 13 138 -21 172 -126 724 -230 1214 -17 83 -35 168 -39
190 -11 58 -43 211 -90 435 -22 107 -63 301 -90 430 -80 385 -128 610 -145
690 -8 41 -22 107 -30 145 -7 39 -28 135 -45 215 -35 167 -85 404 -105 505 -8
39 -26 122 -40 185 -14 63 -32 151 -41 195 -8 44 -33 163 -55 265 -119 548
-136 657 -125 794 3 45 6 87 6 94 0 6 10 12 23 12 22 0 33 -13 89 -105 47 -75
256 -490 292 -577 35 -84 46 -148 26 -148 -12 0 -73 53 -124 109 -82 88 -81
88 -62 11 8 -30 35 -152 60 -270 26 -118 53 -244 61 -280 8 -36 51 -236 95
-445 168 -792 232 -1081 305 -1375 104 -419 243 -1208 336 -1915 27 -204 30
-250 25 -400 -5 -176 -18 -249 -67 -379 -25 -69 -77 -158 -116 -202 -109 -122
-290 -185 -398 -140 -100 42 -215 169 -279 307 -36 78 -49 91 -93 93 -50 1
-155 -49 -349 -166 -204 -122 -348 -230 -474 -357 -168 -169 -262 -304 -418
-598 -227 -428 -356 -543 -548 -488 -72 20 -180 91 -226 148 -150 185 -231
462 -212 718 8 105 -6 159 -40 159 -13 0 -54 -24 -92 -55 -83 -66 -248 -157
-416 -229 -264 -114 -424 -154 -658 -162 -135 -5 -169 -3 -260 16 -57 12 -137
35 -178 52 -184 76 -373 244 -479 425 -43 74 -103 231 -128 337 -43 180 -50
263 -49 584 l0 302 -39 -37 c-22 -21 -57 -62 -79 -92 -125 -167 -247 -258
-357 -268 -223 -20 -399 184 -484 562 -29 126 -38 217 -38 405 -1 184 3 224
42 459 26 149 21 174 -51 260 -176 211 -243 413 -241 726 1 178 41 439 86 570
7 22 34 108 60 190 70 227 102 315 121 336 21 23 28 24 49 3 22 -22 13 -75
-42 -242 -102 -315 -183 -726 -183 -937 0 -194 60 -339 165 -400 72 -43 186
-25 296 46 112 72 490 537 889 1094 51 72 104 143 119 158 l26 28 -30 22 c-16
12 -64 51 -106 88 -103 89 -304 238 -677 502 -234 166 -276 199 -371 289 -144
137 -183 227 -183 423 0 153 10 190 72 258 51 56 328 258 594 434 l68 45 -70
70 c-95 95 -124 151 -130 248 -6 113 11 206 45 243 154 163 1481 804 1689 816
11 0 25 -4 32 -11z m2400 -786 c182 -329 327 -642 296 -642 -5 0 -45 29 -89
65 -69 56 -105 77 -105 61 0 -12 63 -324 86 -426 15 -63 37 -162 49 -220 13
-58 41 -186 63 -285 23 -99 62 -279 87 -400 104 -496 137 -627 166 -662 15
-17 37 1 80 64 38 55 37 81 -9 134 -56 65 -81 110 -92 170 -9 44 -7 59 6 89
42 88 122 152 163 130 43 -22 101 -272 101 -428 l-1 -77 -48 -48 c-60 -58
-115 -161 -131 -244 -13 -65 -8 -134 25 -373 32 -233 42 -632 18 -750 -8 -44
-29 -36 -47 18 -15 44 -61 268 -121 592 -29 152 -68 317 -79 327 -11 11 -86
-30 -173 -94 -92 -68 -130 -84 -143 -62 -14 21 7 48 130 169 67 65 127 134
139 158 l22 43 -45 192 c-43 181 -100 447 -166 777 -16 80 -56 276 -90 435
-33 160 -67 322 -75 360 -8 39 -30 144 -49 235 -77 358 -126 669 -126 797 0
48 4 64 18 72 24 15 54 -22 140 -177z m-2028 -292 c0 -16 -19 -94 -42 -172
-37 -128 -41 -154 -42 -255 -1 -93 2 -115 16 -129 16 -16 19 -15 53 15 20 18
42 30 48 28 19 -6 20 -57 2 -124 -20 -74 -47 -113 -79 -113 -30 0 -82 53 -113
114 -24 48 -25 57 -20 161 6 118 21 201 61 332 28 92 40 118 69 151 29 31 47
28 47 -8z m-2650 -27 c0 -21 -7 -78 -15 -128 -25 -153 -16 -305 21 -336 11 -9
21 -9 41 0 63 29 70 -59 9 -124 -55 -58 -93 -42 -123 52 -23 71 -28 366 -7
452 18 78 40 121 59 121 11 0 15 -11 15 -37z m4431 -619 c9 -194 47 -374 79
-374 6 0 18 16 26 35 30 72 60 30 52 -72 -4 -48 -10 -61 -37 -85 -68 -61 -141
2 -171 147 -15 70 -14 265 0 345 5 30 13 79 16 108 4 32 11 51 18 49 7 -2 13
-58 17 -153z m-709 -48 c-5 -230 24 -328 102 -334 49 -4 59 -30 45 -112 -20
-111 -73 -141 -135 -75 -57 61 -76 129 -81 300 -6 157 5 265 33 335 31 77 39
50 36 -114z m-2182 -72 c58 -50 103 -179 76 -223 -10 -16 -41 -13 -57 5 -7 8
-26 22 -42 31 -25 12 -31 13 -39 1 -6 -8 -6 -87 -1 -203 13 -325 11 -451 -9
-472 -17 -16 -19 -16 -43 7 -14 13 -43 56 -64 95 -44 80 -101 157 -169 228
-46 47 -67 57 -74 36 -11 -32 -103 43 -134 109 -9 20 -17 61 -18 91 -1 50 2
56 26 70 26 15 31 14 75 -9 28 -14 106 -82 188 -162 76 -76 140 -138 141 -138
1 0 5 71 8 158 11 258 23 360 48 389 17 21 54 15 88 -13z m4544 -230 c35 -13
127 -165 254 -420 131 -261 186 -404 162 -419 -18 -11 -48 15 -121 105 -40 49
-74 88 -76 87 -3 -3 4 -40 48 -287 18 -96 103 -508 179 -860 10 -47 30 -139
44 -205 14 -66 44 -205 66 -310 187 -868 261 -1338 261 -1657 0 -197 -34 -430
-61 -413 -20 12 -53 189 -105 555 -59 417 -202 1174 -415 2205 -22 104 -58
278 -80 385 -179 868 -228 1180 -191 1224 15 18 14 18 35 10z m-6111 -431 c15
-18 39 -101 52 -183 12 -72 33 -120 69 -161 19 -21 40 -56 47 -78 16 -52 -6
-91 -51 -91 -50 0 -120 -70 -280 -280 -72 -94 -259 -273 -355 -340 -47 -32
-91 -54 -114 -57 -86 -12 -48 57 106 189 154 134 290 284 402 447 28 41 51 84
51 96 0 24 -19 54 -71 112 -45 50 -54 76 -46 149 15 142 131 262 190 197z
m-456 -184 c7 -14 19 -56 27 -93 7 -37 17 -70 21 -74 4 -4 14 2 24 14 21 27
58 47 71 39 27 -17 1 -100 -49 -157 -41 -47 -84 -63 -104 -40 -40 45 -75 293
-47 327 18 22 42 15 57 -16z m1018 -674 c-13 -159 -15 -213 -5 -282 13 -100
34 -159 62 -174 17 -9 26 -5 57 25 57 56 65 50 58 -44 -5 -81 -28 -145 -58
-163 -44 -27 -128 42 -178 146 -27 54 -31 74 -32 147 0 101 37 438 56 500 10
35 36 63 48 51 5 -5 2 -86 -8 -206z m2654 78 c-46 -186 -52 -225 -53 -333 -1
-100 2 -120 20 -155 12 -22 31 -48 42 -58 19 -17 20 -17 41 18 25 43 43 41 52
-3 15 -75 -34 -195 -87 -208 -34 -9 -84 39 -115 110 -19 42 -23 74 -27 182 -7
204 33 403 93 468 32 35 45 26 34 -21z m961 -301 c0 -32 -7 -112 -15 -177 -26
-210 -16 -339 30 -393 22 -25 26 -26 56 -15 92 35 111 -102 26 -194 -35 -39
-71 -30 -111 24 -56 77 -108 217 -108 288 1 119 70 511 93 525 22 14 29 1 29
-58z m2720 -94 c0 -24 -12 -101 -26 -173 -31 -158 -35 -287 -11 -366 16 -53
69 -139 85 -139 4 0 14 15 20 34 16 42 39 63 53 49 8 -8 7 -40 -1 -107 -21
-160 -67 -220 -127 -164 -14 13 -32 36 -40 52 -46 89 -75 422 -53 626 18 176
37 230 82 230 15 0 18 -8 18 -42z m-3910 -877 c28 -27 36 -50 74 -206 16 -65
55 -135 76 -135 4 0 16 -19 25 -43 12 -33 14 -49 6 -70 -10 -25 -15 -27 -64
-27 -64 0 -85 -18 -117 -100 -27 -69 -64 -130 -153 -250 -159 -215 -463 -543
-544 -587 -41 -22 -62 -8 -42 28 21 41 104 146 236 302 257 301 406 499 447
594 22 49 17 79 -24 143 -42 66 -68 141 -76 214 -6 61 -5 69 20 106 43 65 91
76 136 31z m2410 -288 c56 -54 106 -99 110 -101 4 -1 26 26 51 60 75 108 127
141 195 124 34 -9 106 -76 143 -135 47 -73 43 -109 -25 -215 -31 -47 -60 -86
-64 -86 -4 0 -36 21 -71 46 -119 88 -201 145 -203 142 -26 -43 -151 -230 -157
-233 -4 -3 -57 45 -118 107 -129 128 -124 98 -41 276 29 61 58 112 65 112 6 0
58 -44 115 -97z m-5624 -28 c52 -36 67 -126 39 -240 -19 -81 -93 -301 -117
-350 -23 -44 -47 -75 -60 -75 -23 0 -4 89 66 310 25 79 43 152 40 162 -4 13
-16 18 -44 18 -47 0 -79 25 -82 65 -2 37 13 65 53 99 34 29 74 33 105 11z
m5319 -416 c91 -17 115 -32 115 -75 0 -30 -9 -45 -60 -95 -61 -61 -127 -98
-213 -120 -59 -14 -72 -5 -32 24 66 48 95 80 95 103 0 38 -30 47 -113 33 -82
-13 -121 -4 -130 30 -8 32 36 78 91 95 57 18 167 20 247 5z m-214 -499 c61
-60 19 -118 -89 -125 -99 -6 -146 -41 -158 -117 -5 -30 -2 -41 19 -62 41 -41
95 -50 284 -47 179 2 207 -3 218 -38 13 -43 -49 -111 -103 -111 -47 0 -186
-60 -392 -170 -41 -22 -85 -40 -97 -40 -51 0 -14 129 45 155 12 5 22 14 22 20
0 5 -27 44 -60 85 -78 97 -80 128 -16 256 93 184 246 275 327 194z m-1856
-332 c0 -174 4 -266 12 -294 15 -49 80 -137 96 -131 7 2 26 28 42 57 52 93 71
75 54 -52 -13 -92 -28 -135 -58 -162 -44 -40 -102 -15 -157 66 -47 69 -66 159
-72 336 -5 163 7 272 38 352 9 25 20 53 23 63 17 48 22 -4 22 -235z m-923 204
c-4 -57 -30 -93 -162 -222 -151 -149 -165 -176 -183 -363 -13 -136 0 -271 33
-359 22 -60 80 -160 95 -165 6 -1 24 23 40 55 17 33 38 58 49 60 17 4 18 -1
11 -75 -9 -102 -33 -171 -67 -196 -23 -18 -30 -18 -57 -7 -103 42 -171 219
-172 443 0 159 -10 342 -19 357 -10 16 -33 4 -125 -65 -39 -29 -85 -60 -103
-69 -30 -16 -33 -15 -52 4 -26 26 -25 30 8 76 63 86 410 385 612 526 67 48 96
47 92 0z m377 -412 c69 -37 156 -111 176 -151 27 -50 9 -205 -29 -264 -16 -24
-23 -27 -54 -21 -44 7 -125 61 -209 139 -74 70 -85 106 -59 208 17 65 37 95
71 110 33 13 44 11 104 -21z m-1607 -531 l31 -30 -6 -92 c-8 -102 -25 -195
-58 -303 -26 -85 -49 -120 -74 -111 -19 8 -16 41 16 166 23 91 25 188 4 218
-10 14 -31 24 -59 28 -53 8 -62 29 -36 77 41 78 129 101 182 47z m7020 -47
c20 -24 16 -572 -5 -672 -8 -41 -22 -108 -31 -147 -36 -172 -144 -424 -250
-584 -196 -296 -513 -602 -931 -896 -105 -74 -440 -295 -610 -403 -172 -109
-655 -433 -775 -520 -258 -187 -310 -236 -580 -550 -101 -118 -219 -250 -262
-292 l-78 -78 -59 45 c-63 48 -84 58 -50 24 11 -11 18 -23 16 -26 -10 -9 -154
98 -352 262 -110 91 -242 198 -292 237 -59 46 -89 76 -83 82 6 6 16 4 27 -5
16 -12 17 -12 6 1 -19 25 -71 51 -78 40 -3 -5 -11 -10 -17 -10 -7 0 -7 5 1 14
9 11 6 17 -15 31 -15 9 -24 12 -20 7 4 -6 -2 -10 -13 -9 -14 1 -17 5 -10 13
10 13 -99 81 -281 177 -52 28 -131 70 -175 94 -44 24 -359 183 -699 354 -672
337 -872 440 -926 476 -38 25 -55 30 -44 11 4 -8 3 -10 -2 -5 -5 5 -9 13 -9
18 0 5 -28 25 -63 45 -35 19 -61 30 -58 25 13 -21 -42 -4 -94 28 -105 65 -118
75 -113 85 3 5 1 6 -5 2 -31 -19 -464 307 -655 493 -187 181 -382 444 -496
666 -94 185 -201 464 -201 525 0 11 -4 28 -10 38 -5 9 -19 55 -30 101 -17 68
-18 86 -8 92 21 14 115 32 131 26 8 -3 20 -29 26 -59 22 -102 93 -334 132
-433 88 -219 222 -454 352 -615 188 -232 490 -496 792 -691 334 -216 478 -294
1200 -656 303 -152 602 -302 665 -335 640 -333 713 -381 1172 -759 118 -97
231 -195 253 -218 21 -22 42 -41 45 -41 3 0 18 21 35 48 47 76 349 427 469
547 61 61 140 132 176 160 36 27 67 52 70 55 13 14 563 394 617 425 10 6 79
51 153 99 74 49 162 106 195 126 104 64 385 251 510 339 625 441 954 820 1098
1266 72 222 97 415 94 725 l-2 215 40 5 c55 7 92 1 107 -18z m-2263 -648 c41
-24 98 -113 115 -181 17 -65 21 -143 8 -143 -5 0 -32 20 -61 45 -30 25 -67 53
-83 61 -27 14 -32 14 -48 -1 -35 -32 -49 -113 -96 -559 -8 -71 -7 -72 -91 79
-105 187 -165 259 -246 295 -97 43 -164 130 -174 225 -5 49 -4 54 20 70 24 15
28 15 64 -1 21 -10 97 -76 169 -148 106 -107 137 -144 163 -199 23 -48 37 -67
49 -65 21 4 33 59 25 123 -8 76 27 242 72 342 33 72 63 87 114 57z m-900 -480
c33 -42 44 -100 38 -204 -7 -128 -50 -239 -123 -320 -64 -71 -63 -41 5 118 37
86 55 171 46 220 -6 32 -8 34 -38 28 -68 -13 -72 -12 -75 13 -6 36 18 110 46
142 31 38 73 39 101 3z m-3322 -1260 c-3 -3 -12 -4 -19 -1 -8 3 -5 6 6 6 11 1
17 -2 13 -5z"/>
<path d="M18623 20707 c0 -7 9 -13 19 -13 10 0 18 1 18 3 0 1 -8 7 -18 12 -13
7 -19 6 -19 -2z"/>
<path d="M18784 20606 c1 -8 5 -18 8 -22 4 -3 5 1 4 10 -1 8 -5 18 -8 22 -4 3
-5 -1 -4 -10z"/>
<path d="M14767 16088 c-80 -80 -225 -261 -412 -513 -326 -440 -444 -590 -562
-715 -85 -91 -158 -142 -252 -178 -78 -30 -98 -45 -118 -92 -61 -144 -92 -570
-58 -808 27 -192 57 -276 119 -329 103 -91 258 -58 403 86 79 77 220 252 343
421 278 386 453 516 965 720 301 121 439 203 500 300 33 53 32 98 -6 173 -64
129 -261 409 -428 609 -78 92 -380 399 -401 406 -5 2 -47 -34 -93 -80z m253
-673 c91 -47 186 -131 214 -189 25 -54 20 -110 -20 -205 -20 -47 -42 -92 -49
-99 -12 -13 -49 13 -302 211 -9 6 -15 4 -20 -9 -12 -32 -125 -234 -134 -240
-8 -5 -157 103 -261 189 -61 49 -62 75 -9 183 41 84 72 124 97 124 25 0 105
-45 199 -113 l90 -66 47 97 c63 129 87 149 148 117z m-1040 -602 c0 -26 -12
-119 -26 -206 l-26 -159 28 -51 c38 -72 83 -137 94 -137 5 0 19 19 31 43 23
46 48 77 61 77 14 0 9 -74 -12 -154 -31 -121 -70 -161 -131 -136 -64 27 -96
138 -106 360 -7 167 16 353 50 398 21 28 37 13 37 -35z"/>
<path d="M18810 13909 c-32 -13 -87 -66 -106 -101 -24 -46 -17 -136 22 -270
46 -161 81 -247 110 -277 22 -23 25 -24 50 -11 25 14 110 112 163 188 49 70
45 136 -18 283 -43 98 -76 143 -130 176 -39 25 -53 27 -91 12z"/>
<path d="M18544 16927 c-13 -34 49 -117 87 -117 23 0 24 10 5 54 -25 61 -79
97 -92 63z"/>
<path d="M13120 17120 c0 -34 25 -90 40 -90 14 0 23 39 15 68 -14 57 -55 73
-55 22z"/>
<path d="M16123 15113 c-21 -7 -16 -61 6 -73 44 -23 89 -3 70 31 -12 22 -59
48 -76 42z"/>
<path d="M14242 10730 c7 -10 14 -18 17 -17 4 1 17 -5 30 -12 37 -20 15 4 -24
28 -32 19 -34 19 -23 1z"/>
<path d="M3848 26888 c-4 -10 -13 -16 -20 -13 -7 3 -18 1 -24 -3 -22 -14 -76
-113 -90 -165 -16 -60 -18 -190 -4 -292 18 -134 29 -220 35 -280 3 -33 15
-116 26 -185 10 -69 28 -186 38 -260 11 -74 27 -178 35 -230 8 -52 17 -113 20
-135 8 -59 24 -167 41 -275 8 -52 29 -185 45 -295 17 -110 42 -270 55 -355 14
-85 36 -229 50 -320 15 -91 33 -205 41 -255 8 -49 19 -117 24 -150 14 -102 31
-207 45 -290 7 -44 19 -114 25 -155 6 -41 15 -104 21 -140 6 -36 15 -90 19
-120 5 -30 18 -107 29 -170 11 -63 27 -164 36 -225 9 -60 25 -162 36 -225 30
-168 38 -220 45 -270 3 -25 12 -72 19 -105 7 -33 16 -91 20 -130 3 -38 12 -99
20 -135 7 -36 23 -126 35 -200 11 -74 30 -191 42 -260 11 -69 22 -132 22 -140
1 -8 5 -31 9 -50 4 -19 25 -150 47 -290 22 -140 50 -302 61 -360 11 -58 23
-139 28 -181 5 -43 11 -81 15 -87 3 -5 12 -57 20 -113 19 -139 45 -296 56
-339 5 -19 18 -100 30 -180 11 -80 27 -183 35 -230 9 -47 22 -128 29 -180 14
-92 39 -242 72 -425 9 -49 18 -110 20 -135 2 -25 8 -65 14 -90 9 -41 32 -177
90 -535 11 -66 31 -190 44 -275 14 -85 31 -186 37 -225 6 -38 37 -230 69 -425
65 -392 63 -382 86 -530 8 -58 20 -127 25 -155 6 -27 12 -70 15 -95 3 -25 12
-76 20 -115 9 -38 22 -115 29 -170 8 -55 21 -143 29 -195 23 -134 42 -255 66
-405 23 -148 38 -238 80 -480 16 -93 34 -208 40 -255 6 -47 16 -107 21 -135
10 -55 65 -396 74 -460 3 -22 10 -62 15 -90 5 -27 16 -93 25 -145 8 -52 29
-178 46 -280 31 -185 38 -231 59 -389 6 -47 13 -88 16 -93 3 -4 14 -67 25
-140 36 -237 39 -253 43 -273 2 -11 9 -56 16 -100 7 -44 23 -136 36 -205 24
-130 30 -171 38 -255 3 -27 12 -81 20 -120 8 -38 17 -92 21 -120 3 -27 10 -68
15 -90 5 -22 11 -65 15 -95 3 -30 8 -62 10 -70 3 -8 11 -58 19 -110 8 -52 20
-122 26 -155 6 -33 18 -105 26 -160 8 -55 16 -111 18 -125 10 -56 46 -266 50
-285 4 -20 12 -82 21 -164 3 -24 8 -48 11 -52 6 -10 37 -207 59 -378 9 -62 19
-121 24 -130 4 -9 9 -34 10 -56 0 -22 8 -74 16 -115 9 -41 20 -104 25 -140 5
-36 11 -78 14 -95 2 -16 7 -55 11 -85 4 -30 13 -77 21 -104 8 -27 14 -66 14
-86 0 -20 7 -61 14 -91 8 -31 18 -96 22 -145 4 -49 10 -99 15 -111 4 -12 11
-55 15 -95 3 -40 13 -88 20 -107 8 -18 14 -57 14 -85 0 -28 4 -67 10 -86 5
-19 12 -55 15 -80 4 -25 12 -76 20 -115 7 -38 18 -106 24 -150 7 -44 16 -102
21 -130 8 -48 15 -94 25 -180 3 -22 14 -92 25 -155 26 -144 36 -207 50 -295
11 -72 29 -175 36 -210 3 -11 9 -54 15 -95 22 -159 28 -197 38 -247 6 -29 15
-92 21 -140 6 -48 19 -133 30 -188 11 -55 24 -131 30 -170 6 -38 12 -83 15
-100 2 -16 14 -97 25 -180 12 -82 28 -181 36 -220 8 -38 23 -126 34 -195 10
-69 28 -183 40 -255 12 -71 25 -159 30 -195 5 -36 15 -96 24 -135 8 -38 25
-142 36 -230 12 -88 32 -223 46 -300 14 -77 38 -228 55 -335 29 -193 51 -328
69 -425 5 -27 12 -70 15 -95 5 -43 9 -68 35 -225 15 -92 36 -222 50 -315 6
-41 17 -104 25 -140 7 -36 13 -72 13 -80 1 -8 6 -46 12 -85 10 -63 17 -110 35
-240 3 -22 11 -62 16 -90 23 -108 40 -202 44 -255 8 -86 12 -116 34 -255 11
-71 25 -186 31 -255 20 -227 22 -240 39 -276 41 -84 212 -225 336 -277 142
-59 168 -61 900 -61 622 -1 1386 7 1875 19 113 3 428 10 700 15 272 5 594 12
715 15 121 3 335 7 475 10 703 16 2462 55 2660 60 124 3 513 12 865 20 352 8
834 19 1070 25 237 6 716 17 1065 25 1443 34 1955 46 1956 48 1 1 -4 45 -12
97 -31 217 -8 206 35 -17 16 -81 33 -168 37 -193 l7 -45 9 43 c6 28 6 48 -1
56 -6 7 -13 66 -16 132 -3 65 -12 155 -20 199 -7 44 -16 114 -19 155 -4 41
-11 102 -17 135 -10 58 -15 92 -23 165 -2 19 0 43 6 53 6 12 5 17 -6 17 -8 0
-31 -23 -51 -51 -42 -57 -42 -31 0 -278 14 -84 25 -154 23 -156 -6 -5 -283
-15 -708 -25 -234 -6 -587 -15 -785 -20 -198 -5 -463 -12 -590 -15 -270 -6
-912 -22 -1205 -30 -113 -3 -470 -12 -795 -20 -324 -8 -682 -17 -795 -20 -113
-3 -387 -10 -610 -15 -223 -5 -495 -12 -605 -15 -110 -3 -648 -17 -1195 -30
-547 -14 -1173 -29 -1390 -35 -217 -5 -764 -19 -1215 -30 -451 -12 -953 -24
-1115 -29 -281 -7 -301 -6 -425 15 -314 54 -289 45 -484 179 -95 65 -184 133
-197 149 -13 17 -75 101 -137 186 l-114 155 -71 220 c-74 226 -81 261 -147
690 -26 174 -58 373 -100 640 -13 83 -40 258 -60 390 -20 132 -49 323 -66 425
-16 102 -38 244 -49 315 -62 393 -92 590 -105 675 -8 52 -23 151 -34 220 -11
69 -41 258 -66 420 -25 162 -55 354 -66 425 -11 72 -29 186 -39 255 -10 69
-44 285 -75 480 -31 195 -74 472 -96 615 -22 143 -53 341 -69 440 -16 99 -36
225 -44 280 -22 143 -85 554 -102 660 -8 50 -23 149 -34 220 -11 72 -29 186
-40 255 -11 69 -34 215 -50 325 -28 186 -50 327 -145 930 -20 127 -45 286 -55
355 -10 69 -28 184 -40 255 -25 156 -98 624 -139 895 -17 107 -39 251 -50 320
-12 69 -32 202 -46 295 -14 94 -30 195 -35 225 -5 30 -23 145 -40 255 -32 205
-75 482 -110 705 -11 69 -25 157 -30 195 -6 39 -15 95 -20 125 -6 30 -28 172
-49 315 -76 497 -141 921 -156 1010 -8 50 -33 207 -55 350 -74 479 -81 520
-95 610 -8 50 -26 162 -39 250 -14 88 -37 234 -51 325 -14 91 -32 208 -40 260
-8 52 -28 178 -44 280 -16 102 -39 248 -51 325 -11 77 -34 223 -50 325 -16
102 -48 302 -70 445 -22 143 -44 287 -50 320 -5 33 -21 137 -36 230 -14 94
-50 328 -80 520 -30 193 -75 481 -99 640 -25 160 -54 344 -65 410 -18 112 -65
414 -110 705 -28 186 -147 957 -170 1100 -21 136 -75 478 -115 740 -14 91 -32
201 -40 245 -7 44 -16 103 -20 130 -3 28 -14 104 -25 170 -11 66 -31 194 -45
285 -14 91 -34 219 -45 285 -10 66 -31 197 -45 290 -14 94 -34 224 -45 290
-10 66 -31 197 -45 290 -29 184 -51 245 -40 110 3 -44 10 -100 15 -125 5 -25
12 -83 15 -130 3 -47 12 -146 19 -220 7 -74 14 -152 15 -173 1 -22 8 -58 16
-80 8 -23 15 -59 15 -79 0 -20 5 -49 11 -65 6 -15 13 -59 15 -98 2 -38 5 -86
8 -105 14 -104 27 -181 36 -230 6 -30 13 -79 16 -109 2 -30 7 -57 9 -62 3 -4
1 -11 -5 -14 -7 -4 -8 -11 -1 -18 5 -7 7 -27 5 -45 -2 -20 4 -48 15 -70 10
-20 21 -68 25 -107 4 -38 14 -90 22 -114 8 -23 13 -62 12 -85 -1 -22 3 -63 10
-91 15 -66 20 -101 32 -215 11 -103 13 -118 29 -200 6 -30 17 -102 26 -160 37
-254 55 -369 65 -415 11 -45 20 -151 20 -208 -1 -22 8 -58 19 -80 13 -28 26
-101 40 -217 12 -96 26 -200 30 -230 9 -56 11 -66 36 -205 12 -72 17 -104 31
-216 2 -19 8 -63 14 -99 5 -36 14 -98 19 -138 5 -41 12 -76 15 -79 3 -3 1 -14
-5 -24 -7 -14 -6 -19 2 -19 8 0 10 -12 6 -34 -3 -22 0 -41 9 -55 13 -18 13
-20 -1 -15 -9 4 -15 0 -15 -10 0 -9 6 -13 15 -10 16 6 22 -13 29 -86 8 -78 26
-184 38 -219 6 -19 12 -76 13 -125 2 -92 10 -142 27 -162 5 -7 8 -16 6 -20 -3
-14 23 -187 32 -209 10 -23 17 -87 26 -227 4 -54 11 -98 16 -98 5 0 6 -4 3
-10 -3 -5 -2 -10 4 -10 5 0 10 -8 10 -17 -1 -10 5 -54 11 -98 7 -44 13 -96 14
-115 1 -19 6 -45 10 -57 4 -12 11 -46 17 -75 5 -29 11 -64 14 -78 3 -14 6 -57
8 -95 2 -39 7 -77 11 -84 5 -7 8 -33 8 -58 -1 -25 6 -73 14 -106 9 -34 18 -80
21 -102 2 -22 6 -46 8 -53 5 -15 6 -18 16 -62 7 -31 11 -61 23 -205 2 -16 8
-48 14 -70 13 -49 21 -100 28 -180 3 -33 9 -76 14 -95 5 -19 12 -64 15 -100 4
-36 9 -72 10 -80 2 -8 10 -46 18 -85 9 -38 18 -97 22 -130 7 -65 8 -73 24
-155 6 -30 13 -68 15 -85 2 -16 7 -37 10 -45 4 -9 8 -40 10 -70 7 -96 15 -150
25 -168 9 -18 16 -52 31 -172 17 -127 19 -144 25 -170 11 -57 14 -78 20 -145
3 -38 11 -87 16 -107 16 -60 59 -335 59 -376 0 -20 9 -75 19 -122 16 -75 21
-129 25 -286 1 -23 7 -49 14 -57 13 -15 33 -116 34 -167 0 -14 5 -43 10 -65 6
-22 12 -56 13 -75 5 -75 17 -146 30 -175 7 -16 16 -57 20 -90 3 -33 13 -97 21
-143 8 -45 13 -86 10 -90 -2 -4 4 -45 13 -92 10 -47 21 -120 25 -164 4 -43 13
-93 20 -110 7 -18 16 -63 20 -101 12 -117 17 -159 20 -180 2 -11 13 -83 25
-160 12 -77 28 -165 36 -195 8 -30 16 -89 19 -130 3 -41 10 -91 16 -110 5 -19
10 -52 10 -74 0 -21 4 -55 9 -75 6 -20 15 -76 22 -126 7 -49 13 -92 14 -95 1
-3 5 -27 9 -55 3 -27 11 -63 16 -80 5 -16 11 -52 14 -80 3 -27 10 -65 15 -84
6 -19 13 -68 16 -110 4 -42 9 -89 12 -106 2 -16 7 -43 9 -60 6 -36 24 -114 31
-135 3 -8 7 -31 8 -50 6 -74 15 -156 22 -185 10 -47 13 -66 18 -125 3 -30 11
-78 19 -107 8 -29 16 -83 17 -120 2 -37 8 -86 15 -108 15 -52 33 -151 40 -217
3 -29 10 -80 15 -113 6 -33 12 -78 15 -102 2 -23 8 -61 14 -85 5 -24 10 -67
10 -95 0 -36 4 -53 13 -53 8 0 7 -4 -3 -10 -11 -8 -12 -12 -3 -18 13 -8 29
-75 37 -162 3 -30 11 -84 17 -120 6 -36 15 -99 19 -140 15 -137 31 -235 45
-275 15 -44 36 -206 39 -300 1 -33 7 -70 14 -82 7 -12 11 -26 10 -30 -1 -4 3
-28 9 -53 14 -55 33 -186 38 -260 2 -30 7 -66 10 -80 3 -14 8 -38 9 -55 2 -16
11 -50 21 -75 9 -25 19 -70 21 -100 12 -150 25 -241 59 -425 22 -120 35 -216
48 -360 2 -16 8 -39 15 -51 6 -11 15 -63 21 -115 6 -52 13 -105 15 -119 3 -13
8 -42 11 -65 3 -22 8 -47 11 -56 2 -9 6 -36 9 -60 2 -24 7 -55 10 -69 4 -14
10 -56 15 -95 5 -38 11 -77 15 -85 6 -18 10 -45 23 -176 5 -50 11 -95 15 -100
3 -6 11 -46 16 -90 6 -43 18 -115 26 -159 16 -82 21 -115 50 -315 19 -134 33
-225 40 -260 3 -14 7 -38 10 -55 2 -16 11 -70 20 -120 9 -49 18 -119 21 -155
2 -36 8 -76 13 -90 5 -14 9 -32 9 -40 0 -8 3 -35 7 -60 9 -56 12 -77 24 -165
8 -63 21 -139 36 -215 3 -14 8 -41 11 -60 3 -19 10 -48 15 -65 4 -16 11 -68
14 -114 3 -46 7 -87 10 -91 2 -3 7 -22 10 -41 3 -19 8 -45 10 -59 3 -14 9 -50
16 -80 6 -30 12 -97 15 -149 2 -52 8 -99 13 -105 10 -14 20 -56 27 -121 3 -27
10 -63 15 -80 12 -33 12 -33 33 -165 22 -136 27 -172 26 -200 0 -21 6 -61 24
-155 2 -11 7 -45 10 -75 4 -30 12 -80 17 -110 5 -30 11 -68 13 -85 3 -16 5
-30 6 -30 4 0 18 -78 30 -175 6 -47 15 -107 20 -135 5 -27 9 -73 9 -100 1 -28
10 -84 22 -125 11 -41 22 -86 23 -100 2 -14 7 -47 11 -75 5 -27 8 -54 7 -58
-1 -4 3 -18 9 -29 7 -12 13 -63 14 -113 1 -49 6 -99 12 -110 22 -42 33 -90 23
-93 -7 -3 -7 -9 1 -18 6 -8 9 -14 7 -14 -3 0 -1 -19 4 -42 4 -24 11 -56 14
-73 3 -16 7 -41 10 -55 2 -14 9 -65 15 -115 5 -49 16 -112 24 -140 7 -27 16
-84 20 -125 10 -116 12 -124 23 -161 5 -19 10 -41 10 -49 0 -13 5 -73 17 -210
1 -19 6 -43 9 -53 16 -45 18 -54 22 -82 3 -16 8 -37 11 -45 12 -30 14 -46 18
-146 5 -130 33 -292 80 -454 7 -25 16 -58 20 -74 6 -26 5 -28 -10 -16 -52 43
-92 157 -135 382 -16 90 -39 210 -50 268 -25 132 -67 373 -81 465 -16 106 -58
360 -74 450 -13 72 -62 374 -130 795 -13 85 -27 178 -30 205 -4 28 -13 82 -20
120 -8 39 -21 117 -30 175 -27 181 -35 233 -51 320 -8 47 -23 144 -34 215 -10
72 -30 198 -43 280 -28 166 -65 398 -73 460 -3 22 -16 103 -29 180 -13 77 -28
174 -35 215 -6 41 -24 161 -41 265 -17 105 -41 260 -54 345 -26 173 -115 740
-145 925 -10 66 -31 197 -45 290 -14 94 -32 208 -40 255 -32 188 -47 286 -85
540 -22 146 -48 317 -59 380 -28 166 -88 541 -101 640 -7 47 -27 180 -45 295
-19 116 -44 273 -55 350 -12 77 -30 192 -40 255 -10 63 -22 142 -25 175 -4 33
-11 76 -15 95 -5 19 -12 60 -15 90 -4 30 -17 118 -30 195 -13 77 -26 158 -29
180 -4 36 -40 258 -96 605 -11 69 -29 188 -40 265 -11 77 -27 178 -34 225 -8
47 -19 119 -25 160 -11 68 -80 515 -117 750 -8 52 -19 129 -25 170 -5 41 -18
120 -29 175 -10 55 -28 172 -40 260 -11 88 -25 179 -30 201 -5 23 -21 117 -35
210 -13 93 -34 228 -46 299 -11 72 -27 175 -35 230 -38 262 -57 381 -88 575
-14 80 -27 168 -31 195 -3 28 -10 73 -16 100 -5 28 -32 201 -60 385 -27 184
-54 351 -58 370 -5 19 -12 62 -16 95 -6 60 -63 444 -90 605 -7 47 -21 132 -30
190 -99 649 -128 838 -150 970 -14 85 -36 232 -50 325 -24 157 -48 316 -110
700 -13 83 -29 188 -35 235 -6 47 -25 170 -41 274 -16 104 -37 237 -45 295 -8
58 -18 126 -23 151 -9 50 -26 154 -42 270 -10 75 -15 104 -43 275 -8 50 -22
144 -31 210 -9 66 -20 138 -25 160 -5 22 -20 119 -35 215 -14 96 -34 231 -45
300 -11 69 -26 175 -35 235 -9 61 -23 148 -31 195 -29 170 -73 459 -94 610
-11 85 -25 180 -31 210 -5 30 -18 116 -29 190 -11 74 -38 252 -60 395 -23 143
-48 305 -55 360 -8 55 -28 192 -46 305 -17 113 -35 230 -39 260 -5 30 -13 87
-19 125 -6 39 -17 115 -25 170 -8 55 -35 237 -61 405 -70 464 -95 636 -110
745 -8 55 -21 150 -30 210 -38 273 -48 357 -54 460 -3 61 -9 102 -13 93z"/>
<path d="M4082 26190 c0 -14 2 -19 5 -12 2 6 2 18 0 25 -3 6 -5 1 -5 -13z"/>
<path d="M4083 26080 c0 -25 2 -35 4 -22 2 12 2 32 0 45 -2 12 -4 2 -4 -23z"/>
<path d="M24319 6490 c-138 -28 -208 -49 -320 -95 -79 -32 -164 -72 -189 -88
-111 -75 -238 -178 -269 -218 -19 -24 -65 -78 -102 -119 -54 -60 -83 -108
-152 -245 -47 -93 -88 -183 -91 -200 l-7 -30 23 35 c21 34 24 40 27 59 0 5 13
23 27 40 14 17 23 31 19 31 -6 0 25 60 36 70 3 3 23 32 44 65 21 33 40 62 44
65 3 3 21 23 40 45 32 37 209 179 296 237 76 50 274 129 395 157 257 60 284
70 308 111 9 17 22 30 29 30 24 0 46 72 26 83 -5 2 -87 -13 -184 -33z"/>
<path d="M11623 6170 c-37 -34 -42 -31 92 -55 50 -8 109 -20 133 -25 23 -6 51
-10 62 -10 46 0 388 -121 460 -163 41 -24 106 -60 143 -81 109 -60 345 -254
424 -349 114 -136 177 -206 180 -203 10 9 -263 317 -323 365 -162 130 -207
173 -190 183 19 10 21 44 4 54 -7 5 -9 2 -4 -7 4 -8 -1 -4 -11 7 -19 22 -115
80 -218 131 -54 27 -110 47 -315 113 -51 16 -364 71 -398 70 -4 0 -21 -14 -39
-30z"/>
<path d="M23141 5334 c0 -11 3 -14 6 -6 3 7 2 16 -1 19 -3 4 -6 -2 -5 -13z"/>
<path d="M22790 4393 c-41 -1 -374 -10 -740 -18 -858 -20 -1392 -33 -1605 -40
-172 -5 -331 -9 -1820 -45 -451 -11 -980 -24 -1175 -30 -195 -5 -463 -12 -595
-15 -132 -3 -503 -12 -825 -20 -853 -21 -1325 -33 -1855 -46 l-470 -12 -29
-24 c-17 -14 -41 -29 -54 -34 -13 -5 -20 -14 -16 -20 4 -8 52 -9 158 -5 83 3
333 8 556 11 223 3 475 8 560 10 85 2 355 7 600 10 730 10 944 14 1160 19 113
3 390 8 615 11 913 12 1076 15 1215 20 140 5 718 16 1040 20 460 4 1203 16
1255 20 33 2 211 7 395 10 184 3 459 8 610 11 151 2 421 7 600 10 480 7 603
11 626 21 11 4 37 27 58 50 30 34 37 48 32 68 -6 25 -7 25 -114 23 -59 -1
-141 -3 -182 -5z"/>
<path d="M23000 2159 c0 -5 5 -7 10 -4 6 3 10 8 10 11 0 2 -4 4 -10 4 -5 0
-10 -5 -10 -11z"/>
<path d="M23220 2042 c0 -10 46 -9 56 1 4 4 -7 7 -24 7 -18 0 -32 -4 -32 -8z"/>
<path d="M20371 1250 c0 -14 4 -43 8 -65 l9 -40 1 50 c0 28 -4 57 -9 65 -8 12
-10 10 -9 -10z"/>
<path d="M20396 1075 c3 -33 8 -62 10 -64 9 -10 3 96 -7 109 -7 11 -8 -3 -3
-45z"/>
<path d="M22511 984 c0 -11 3 -14 6 -6 3 7 2 16 -1 19 -3 4 -6 -2 -5 -13z"/>
<path d="M21485 826 c-125 -58 -604 -389 -755 -521 -65 -56 -145 -105 -175
-105 -21 0 -19 -17 4 -30 29 -15 78 -12 114 7 17 9 172 110 344 225 171 114
336 219 365 233 41 19 69 25 126 25 l74 0 421 -214 c432 -219 519 -256 557
-236 26 14 47 47 54 83 7 38 -2 57 -26 57 -18 0 -111 46 -423 212 -309 164
-578 288 -621 288 -5 0 -31 -11 -59 -24z"/>
<path d="M20471 594 c0 -11 3 -14 6 -6 3 7 2 16 -1 19 -3 4 -6 -2 -5 -13z"/>
</g>
</svg>
